/* XPM */
static char * fly_anim_f3_xpm[] = {
"64 64 8 1",
" 	c #222222",
".	c #483B3A",
"+	c #775C55",
"@	c #000000",
"#	c #D95763",
"$	c #D6D6D6",
"%	c #45283C",
"&	c #306082",
"            ....                ............    ....            ",
"            ....                ............    ....            ",
"            ....                ............    ....            ",
"            ....                ............    ....            ",
"    ........................................................++++",
"    ........................................................++++",
"    ........................................................++++",
"    ........................................................++++",
"............................................................++++",
"............................................................++++",
"............................................................++++",
"............................................................++++",
"............................................................++++",
"............................................................++++",
"............................................................++++",
"............................................................++++",
"    ........................................................++++",
"    ........................................................++++",
"    ........................................................++++",
"    ........................................................++++",
"............................@@@@@@@@@@@@....................++++",
"............................@@@@@@@@@@@@....................++++",
"............................@@@@@@@@@@@@....................++++",
"............................@@@@@@@@@@@@....................++++",
"    ............@@@@@@@@@@@@####$$$$####@@@@@@@@................",
"    ............@@@@@@@@@@@@####$$$$####@@@@@@@@................",
"    ............@@@@@@@@@@@@####$$$$####@@@@@@@@................",
"    ............@@@@@@@@@@@@####$$$$####@@@@@@@@................",
"    ........@@@@%%%%@@@@$$$$$$$$$$$$$$$$####@@@@@@@@........++++",
"    ........@@@@%%%%@@@@$$$$$$$$$$$$$$$$####@@@@@@@@........++++",
"    ........@@@@%%%%@@@@$$$$$$$$$$$$$$$$####@@@@@@@@........++++",
"    ........@@@@%%%%@@@@$$$$$$$$$$$$$$$$####@@@@@@@@........++++",
"    ....@@@@%%%%%%%%@@@@####$$$$&&&&&&&&$$$$@@@@%%%%@@@@........",
"    ....@@@@%%%%%%%%@@@@####$$$$&&&&&&&&$$$$@@@@%%%%@@@@........",
"    ....@@@@%%%%%%%%@@@@####$$$$&&&&&&&&$$$$@@@@%%%%@@@@........",
"    ....@@@@%%%%%%%%@@@@####$$$$&&&&&&&&$$$$@@@@%%%%@@@@........",
"........@@@@%%%%%%%%@@@@@@@@####&&&&&&&&@@@@%%%%%%%%@@@@....++++",
"........@@@@%%%%%%%%@@@@@@@@####&&&&&&&&@@@@%%%%%%%%@@@@....++++",
"........@@@@%%%%%%%%@@@@@@@@####&&&&&&&&@@@@%%%%%%%%@@@@....++++",
"........@@@@%%%%%%%%@@@@@@@@####&&&&&&&&@@@@%%%%%%%%@@@@....++++",
"........@@@@%%%%@@@@........@@@@@@@@@@@@....@@@@%%%%@@@@....++++",
"........@@@@%%%%@@@@........@@@@@@@@@@@@....@@@@%%%%@@@@....++++",
"........@@@@%%%%@@@@........@@@@@@@@@@@@....@@@@%%%%@@@@....++++",
"........@@@@%%%%@@@@........@@@@@@@@@@@@....@@@@%%%%@@@@....++++",
"    ........@@@@@@@@........................@@@@@@@@............",
"    ........@@@@@@@@........................@@@@@@@@............",
"    ........@@@@@@@@........................@@@@@@@@............",
"    ........@@@@@@@@........................@@@@@@@@............",
"    ............................................................",
"    ............................................................",
"    ............................................................",
"    ............................................................",
"    ........................................................++++",
"    ........................................................++++",
"    ........................................................++++",
"    ........................................................++++",
"    ........................................................++++",
"    ........................................................++++",
"    ........................................................++++",
"    ........................................................++++",
"++++++++++++........++++....++++++++++++++++....++++++++++++++++",
"++++++++++++........++++....++++++++++++++++....++++++++++++++++",
"++++++++++++........++++....++++++++++++++++....++++++++++++++++",
"++++++++++++........++++....++++++++++++++++....++++++++++++++++"};
