/* XPM */
static char * four_xpm[] = {
"57 130 47 1",
" 	c #888888",
".	c #444444",
"+	c #4A4A4A",
"@	c #4C4C4C",
"#	c #484848",
"$	c #4D4D4D",
"%	c #6B6B6B",
"&	c #1C1117",
"*	c #767676",
"=	c #494949",
"-	c #4E4E4E",
";	c #4B4B4B",
">	c #3F3F3F",
",	c #5A5A5A",
"'	c #FFFFFF",
")	c #2A2A2A",
"!	c #3E3E3E",
"~	c #5B5B5B",
"{	c #313131",
"]	c #424242",
"^	c #585858",
"/	c #2F2F2F",
"(	c #464646",
"_	c #454545",
":	c #3D3D3D",
"<	c #474747",
"[	c #414141",
"}	c #FCFCFC",
"|	c #FDFDFD",
"1	c #434343",
"2	c #FBFBFB",
"3	c #2E2E2E",
"4	c #323232",
"5	c #2B2B2B",
"6	c #333333",
"7	c #393939",
"8	c #383838",
"9	c #373737",
"0	c #3A3A3A",
"a	c #CCCCCC",
"b	c #595959",
"c	c #858585",
"d	c #404040",
"e	c #181818",
"f	c #3C3C3C",
"g	c #7B7B7B",
"h	c #777777",
" .++@@@@@@@@@@#$@.%&&&&&&&&&&&&&&&&&&*=$-+;@;@@@@@@@@$>*&",
",''''''''''''''''')&&&&&&&&&&&&&&&&&&#'''''''''''''''''!&",
"~'''''''''''''''''{&&&&&&&&&&&&&&&&&&#''''''''''''''''']&",
"^'''''''''''''''''/&&&&&&&&&&&&&&&&&&('''''''''''''''''>&",
"^'''''''''''''''''/&&&&&&&&&&&&&&&&&&('''''''''''''''''>&",
"^'''''''''''''''''/&&&&&&&&&&&&&&&&&&('''''''''''''''''>&",
"^'''''''''''''''''/&&&&&&&&&&&&&&&&&&('''''''''''''''''>&",
"^'''''''''''''''''/&&&&&&&&&&&&&&&&&&('''''''''''''''''>&",
"^'''''''''''''''''/&&&&&&&&&&&&&&&&&&('''''''''''''''''>&",
"^'''''''''''''''''/&&&&&&&&&&&&&&&&&&('''''''''''''''''>&",
"^'''''''''''''''''/&&&&&&&&&&&&&&&&&&('''''''''''''''''>&",
"^'''''''''''''''''/&&&&&&&&&&&&&&&&&&('''''''''''''''''>&",
"^'''''''''''''''''/&&&&&&&&&&&&&&&&&&('''''''''''''''''>&",
"^'''''''''''''''''/&&&&&&&&&&&&&&&&&&('''''''''''''''''>&",
"^'''''''''''''''''/&&&&&&&&&&&&&&&&&&('''''''''''''''''>&",
"^'''''''''''''''''/&&&&&&&&&&&&&&&&&&('''''''''''''''''>&",
"^'''''''''''''''''/&&&&&&&&&&&&&&&&&&('''''''''''''''''>&",
"^'''''''''''''''''/&&&&&&&&&&&&&&&&&&('''''''''''''''''>&",
"^'''''''''''''''''/&&&&&&&&&&&&&&&&&&('''''''''''''''''!&",
"^'''''''''''''''''/&&&&&&&&&&&&&&&&&&('''''''''''''''''!&",
"^'''''''''''''''''/&&&&&&&&&&&&&&&&&&('''''''''''''''''!&",
"^'''''''''''''''''/&&&&&&&&&&&&&&&&&&('''''''''''''''''!&",
"^'''''''''''''''''/&&&&&&&&&&&&&&&&&&('''''''''''''''''!&",
"^'''''''''''''''''/&&&&&&&&&&&&&&&&&&('''''''''''''''''!&",
"^'''''''''''''''''/&&&&&&&&&&&&&&&&&&('''''''''''''''''!&",
"^'''''''''''''''''/&&&&&&&&&&&&&&&&&&('''''''''''''''''!&",
"^'''''''''''''''''/&&&&&&&&&&&&&&&&&&('''''''''''''''''!&",
"^'''''''''''''''''/&&&&&&&&&&&&&&&&&&('''''''''''''''''>&",
"^'''''''''''''''''/&&&&&&&&&&&&&&&&&&('''''''''''''''''>&",
"^'''''''''''''''''/&&&&&&&&&&&&&&&&&&('''''''''''''''''>&",
"^'''''''''''''''''/&&&&&&&&&&&&&&&&&&('''''''''''''''''>&",
"^'''''''''''''''''/&&&&&&&&&&&&&&&&&&('''''''''''''''''>&",
"^'''''''''''''''''/&&&&&&&&&&&&&&&&&&('''''''''''''''''>&",
"^'''''''''''''''''/&&&&&&&&&&&&&&&&&&('''''''''''''''''!&",
"^'''''''''''''''''/&&&&&&&&&&&&&&&&&&('''''''''''''''''!&",
"^'''''''''''''''''/&&&&&&&&&&&&&&&&&&_''''''''''''''''':&",
"^'''''''''''''''''/&&&&&&&&&&&&&&&&&&<''''''''''''''''':&",
"^'''''''''''''''''/&&&&&&&&&&&&&&&&&&('''''''''''''''''!&",
"^'''''''''''''''''/&&&&&&&&&&&&&&&&&&_''''''''''''''''':&",
"^'''''''''''''''''/&&&&&&&&&&&&&&&&&&(''''''''''''''''':&",
"^'''''''''''''''''/&&&&&&&&&&&&&&&&&&<'''''''''''''''''[&",
"^'''''''''''''''''/&&&&&&&&&&&&&&&&&&('''''''''''''''''#&",
"^'''''''''''''''''/&&&&&&&&&&&&&&&&&&(''''''''''''''''};&",
"^'''''''''''''''''/&&&&&&&&&&&&&&&&&&('''''''''''''''''+&",
"^'''''''''''''''''/&&&&&&&&&&&&&&&&&&('''''''''''''''''+&",
"^'''''''''''''''''/&&&&&&&&&&&&&&&&&&('''''''''''''''''<&",
"^'''''''''''''''''/&&&&&&&&&&&&&&&&&&('''''''''''''''''=&",
"^'''''''''''''''''/&&&&&&&&&&&&&&&&&&(''''''''''''''''';&",
"^'''''''''''''''''/&&&&&&&&&&&&&&&&&&(''''''''''''''''';&",
"^'''''''''''''''''/&&&&&&&&&&&&&&&&&&(''''''''''''''''|@&",
"^'''''''''''''''''/&&&&&&&&&&&&&&&&&&('''''''''''''''''=&",
"^'''''''''''''''''/&&&&&&&&&&&&&&&&&&('''''''''''''''''.&",
"^'''''''''''''''''/&&&&&&&&&&&&&&&&&&('''''''''''''''''>&",
"^'''''''''''''''''/&&&&&&&&&&&&&&&&&&('''''''''''''''''!&",
"^'''''''''''''''''/&&&&&&&&&&&&&&&&&&('''''''''''''''''1&",
"^'''''''''''''''''/&&&&&&&&&&&&&&&&&&('''''''''''''''''#&",
"^'''''''''''''''''/&&&&&&&&&&&&&&&&&&(''''''''''''''''2+&",
"^'''''''''''''''''/&&&&&&&&&&&&&&&&&&('''''''''''''''''(&",
"^'''''''''''''''''/&&&&&&&&&&&&&&&&&&('''''''''''''''''!&",
"^'''''''''''''''''/&&&&&&&&&&&&&&&&&&('''''''''''''''''!&",
"^'''''''''''''''''/&&&&&&&&&&&&&&&&&&('''''''''''''''''!&",
"^'''''''''''''''''/&&&&&&&&&&&&&&&&&&('''''''''''''''''!&",
"^'''''''''''''''''/&&&&&&&&&&&&&&&&&&('''''''''''''''''>&",
"^'''''''''''''''''/&&&&&&&&&&&&&&&&&&('''''''''''''''''>&",
"^'''''''''''''''''/&&&&&&&&&&&&&&&&&&('''''''''''''''''>&",
"^'''''''''''''''''/&&&&&&&&&&&&&&&&&&('''''''''''''''''!&",
"^'''''''''''''''''/&&&&&&&&&&&&&&&&&&('''''''''''''''''>&",
"^'''''''''''''''''3&&&&&&&&&&&&&&&&&&<'''''''''''''''''>&",
"^'''''''''''''''''3&&&&&&&&&&&&&&&&&&_'''''''''''''''''>&",
"^'''''''''''''''''4&&&&&&&&&&&&&&&&&&['''''''''''''''''>&",
"^'''''''''''''''''5&&&&&&&&&&&&&&&&&&<'''''''''''''''''>&",
"^'''''''''''''''''6&&&&&&&&&&&&&&&&&&_'''''''''''''''''>&",
"^'''''''''''''''''/&&&&&&&&&&&&&&&&&&='''''''''''''''''>&",
"^'''''''''''''''''3&&&&&&&&&&&&&&&&&&1'''''''''''''''''>&",
"^''''''''''''''''''778777777777787790a'''''''''''''''''>&",
"^''''''''''''''''''''''''''''''''''''''''''''''''''''''>&",
"^''''''''''''''''''''''''''''''''''''''''''''''''''''''>&",
"^''''''''''''''''''''''''''''''''''''''''''''''''''''''>&",
"^''''''''''''''''''''''''''''''''''''''''''''''''''''''>&",
"^''''''''''''''''''''''''''''''''''''''''''''''''''''''>&",
"^''''''''''''''''''''''''''''''''''''''''''''''''''''''>&",
"^''''''''''''''''''''''''''''''''''''''''''''''''''''''>&",
"^''''''''''''''''''''''''''''''''''''''''''''''''''''''>&",
"b''''''''''''''''''''''''''''''''''''''''''''''''''''''>&",
"b''''''''''''''''''''''''''''''''''''''''''''''''''''''>&",
"b''''''''''''''''''''''''''''''''''''''''''''''''''''''>&",
"b''''''''''''''''''''''''''''''''''''''''''''''''''''''>&",
"b''''''''''''''''''''''''''''''''''''''''''''''''''''''>&",
"^''''''''''''''''''''''''''''''''''''''''''''''''''''''>&",
"b''''''''''''''''''''''''''''''''''''''''''''''''''''''>&",
",''''''''''''''''''''''''''''''''''''''''''''''''''''''>&",
"b''''''''''''''''''''''''''''''''''''''''''''''''''''''>&",
"cd++=========================+=+=++#;e'''''''''''''''''>&",
"&&&&&&&&&&&&&&&&&&&&&&&&&&&&&&&&&&&&&1'''''''''''''''''>&",
"&&&&&&&&&&&&&&&&&&&&&&&&&&&&&&&&&&&&&@'''''''''''''''''>&",
"&&&&&&&&&&&&&&&&&&&&&&&&&&&&&&&&&&&&&('''''''''''''''''>&",
"&&&&&&&&&&&&&&&&&&&&&&&&&&&&&&&&&&&&&#'''''''''''''''''>&",
"&&&&&&&&&&&&&&&&&&&&&&&&&&&&&&&&&&&&&1'''''''''''''''''>&",
"&&&&&&&&&&&&&&&&&&&&&&&&&&&&&&&&&&&&&='''''''''''''''''>&",
"&&&&&&&&&&&&&&&&&&&&&&&&&&&&&&&&&&&&&('''''''''''''''''>&",
"&&&&&&&&&&&&&&&&&&&&&&&&&&&&&&&&&&&&&('''''''''''''''''>&",
"&&&&&&&&&&&&&&&&&&&&&&&&&&&&&&&&&&&&&('''''''''''''''''>&",
"&&&&&&&&&&&&&&&&&&&&&&&&&&&&&&&&&&&&&('''''''''''''''''>&",
"&&&&&&&&&&&&&&&&&&&&&&&&&&&&&&&&&&&&&('''''''''''''''''>&",
"&&&&&&&&&&&&&&&&&&&&&&&&&&&&&&&&&&&&&('''''''''''''''''>&",
"&&&&&&&&&&&&&&&&&&&&&&&&&&&&&&&&&&&&&('''''''''''''''''>&",
"&&&&&&&&&&&&&&&&&&&&&&&&&&&&&&&&&&&&&('''''''''''''''''>&",
"&&&&&&&&&&&&&&&&&&&&&&&&&&&&&&&&&&&&&('''''''''''''''''>&",
"&&&&&&&&&&&&&&&&&&&&&&&&&&&&&&&&&&&&&('''''''''''''''''>&",
"&&&&&&&&&&&&&&&&&&&&&&&&&&&&&&&&&&&&&('''''''''''''''''>&",
"&&&&&&&&&&&&&&&&&&&&&&&&&&&&&&&&&&&&&('''''''''''''''''>&",
"&&&&&&&&&&&&&&&&&&&&&&&&&&&&&&&&&&&&&('''''''''''''''''>&",
"&&&&&&&&&&&&&&&&&&&&&&&&&&&&&&&&&&&&&('''''''''''''''''>&",
"&&&&&&&&&&&&&&&&&&&&&&&&&&&&&&&&&&&&&('''''''''''''''''>&",
"&&&&&&&&&&&&&&&&&&&&&&&&&&&&&&&&&&&&&('''''''''''''''''>&",
"&&&&&&&&&&&&&&&&&&&&&&&&&&&&&&&&&&&&&('''''''''''''''''>&",
"&&&&&&&&&&&&&&&&&&&&&&&&&&&&&&&&&&&&&('''''''''''''''''>&",
"&&&&&&&&&&&&&&&&&&&&&&&&&&&&&&&&&&&&&('''''''''''''''''>&",
"&&&&&&&&&&&&&&&&&&&&&&&&&&&&&&&&&&&&&('''''''''''''''''>&",
"&&&&&&&&&&&&&&&&&&&&&&&&&&&&&&&&&&&&&('''''''''''''''''>&",
"&&&&&&&&&&&&&&&&&&&&&&&&&&&&&&&&&&&&&('''''''''''''''''>&",
"&&&&&&&&&&&&&&&&&&&&&&&&&&&&&&&&&&&&&('''''''''''''''''>&",
"&&&&&&&&&&&&&&&&&&&&&&&&&&&&&&&&&&&&&('''''''''''''''''>&",
"&&&&&&&&&&&&&&&&&&&&&&&&&&&&&&&&&&&&&<'''''''''''''''''d&",
"&&&&&&&&&&&&&&&&&&&&&&&&&&&&&&&&&&&&&1'''''''''''''''''f&",
"&&&&&&&&&&&&&&&&&&&&&&&&&&&&&&&&&&&&&<'''''''''''''''''>&",
"&&&&&&&&&&&&&&&&&&&&&&&&&&&&&&&&&&&&&_''''''''''''''''']&",
"&&&&&&&&&&&&&&&&&&&&&&&&&&&&&&&&&&&&&<'''''''''''''''''!&",
"&&&&&&&&&&&&&&&&&&&&&&&&&&&&&&&&&&&&&='''''''''''''''''d&",
"&&&&&&&&&&&&&&&&&&&&&&&&&&&&&&&&&&&&&g##$;+=;;;;;;;;;$dh&"};
