/* XPM */
static char * nine_xpm[] = {
"57 130 74 1",
" 	c #BCBCBC",
".	c #3F3F3F",
"+	c #4A4A4A",
"@	c #4D4D4D",
"#	c #4C4C4C",
"$	c #4B4B4B",
"%	c #494949",
"&	c #565656",
"*	c #EAEAEA",
"=	c #A0A0A0",
"-	c #FFFFFF",
";	c #E3E3E3",
">	c #9F9F9F",
",	c #E2E2E2",
"'	c #E4E4E4",
")	c #E6E6E6",
"!	c #E5E5E5",
"~	c #E1E1E1",
"{	c #2E2E2E",
"]	c #373737",
"^	c #3A3A3A",
"/	c #202020",
"(	c #E9E9E9",
"_	c #D8D8D8",
":	c #1C1117",
"<	c #888888",
"[	c #E8E8E8",
"}	c #898989",
"|	c #E7E7E7",
"1	c #8A8A8A",
"2	c #D7D7D7",
"3	c #909090",
"4	c #929292",
"5	c #F9F9F9",
"6	c #FEFEFE",
"7	c #949494",
"8	c #959595",
"9	c #939393",
"0	c #8E8E8E",
"a	c #8B8B8B",
"b	c #8D8D8D",
"c	c #8F8F8F",
"d	c #D6D6D6",
"e	c #D4D4D4",
"f	c #D5D5D5",
"g	c #D2D2D2",
"h	c #969696",
"i	c #D0D0D0",
"j	c #D3D3D3",
"k	c #8C8C8C",
"l	c #D1D1D1",
"m	c #D9D9D9",
"n	c #DBDBDB",
"o	c #DADADA",
"p	c #393939",
"q	c #383838",
"r	c #363636",
"s	c #1F1F1F",
"t	c #A1A1A1",
"u	c #BABABA",
"v	c #3D3D3D",
"w	c #454545",
"x	c #484848",
"y	c #515151",
"z	c #292929",
"A	c #B2B2B2",
"B	c #2A2A2A",
"C	c #9E9E9E",
"D	c #9D9D9D",
"E	c #A2A2A2",
"F	c #9C9C9C",
"G	c #414141",
"H	c #555555",
"I	c #ECECEC",
" .+@################################################$$%&*",
"=-------------------------------------------------------;",
"=-------------------------------------------------------;",
">-------------------------------------------------------;",
">-------------------------------------------------------;",
">-------------------------------------------------------,",
">-------------------------------------------------------,",
">-------------------------------------------------------;",
">-------------------------------------------------------'",
">-------------------------------------------------------)",
">-------------------------------------------------------)",
">-------------------------------------------------------!",
">-------------------------------------------------------)",
">-------------------------------------------------------!",
">-------------------------------------------------------;",
">-------------------------------------------------------~",
">-------------------------------------------------------~",
">-------------------------------------------------------!",
">------------------{]]]]]]]]]]]]]]]]^/------------------(",
">------------------_:::::::::::::::::<------------------[",
">------------------_:::::::::::::::::}------------------|",
">------------------_:::::::::::::::::1------------------)",
">------------------_:::::::::::::::::}------------------|",
">------------------_:::::::::::::::::}------------------[",
">------------------_:::::::::::::::::}------------------[",
">------------------_:::::::::::::::::}------------------|",
">------------------_:::::::::::::::::<------------------[",
">------------------2:::::::::::::::::3------------------[",
">------------------2:::::::::::::::::4-5---------------6|",
">------------------2:::::::::::::::::7-----------------6)",
">------------------2:::::::::::::::::86----------------6'",
">------------------2:::::::::::::::::9-----------------6,",
">------------------2:::::::::::::::::0------------------~",
">------------------2:::::::::::::::::a------------------,",
">------------------2:::::::::::::::::b------------------'",
">------------------2:::::::::::::::::c------------------'",
">------------------d:::::::::::::::::4------------------!",
">------------------d:::::::::::::::::8------------------!",
">------------------d:::::::::::::::::76-----------------!",
">------------------d:::::::::::::::::7------------------!",
">------------------d:::::::::::::::::9------------------!",
">------------------d:::::::::::::::::0------------------!",
">------------------d:::::::::::::::::}------------------!",
">------------------e:::::::::::::::::<------------------!",
">------------------f:::::::::::::::::3------------------!",
">------------------g:::::::::::::::::h------------------!",
">------------------f:::::::::::::::::h------------------!",
">------------------e:::::::::::::::::9------------------!",
">------------------i:::::::::::::::::3------------------!",
">------------------j:::::::::::::::::k------------------!",
">------------------l:::::::::::::::::}------------------!",
">-----------------62:::::::::::::::::1------------------!",
">-----------------6m:::::::::::::::::1------------------!",
">-----------------6n:::::::::::::::::1------------------!",
">------------------n:::::::::::::::::1------------------!",
">------------------o:::::::::::::::::a------------------!",
">-----------------6m:::::::::::::::::a------------------!",
">-----------------6m:::::::::::::::::a------------------!",
">-----------------6o:::::::::::::::::a------------------!",
">-----------------62:::::::::::::::::a------------------!",
">------------------d:::::::::::::::::a------------------!",
">------------------e:::::::::::::::::a------------------!",
">------------------j:::::::::::::::::k------------------!",
">------------------j:::::::::::::::::k------------------!",
">------------------e:::::::::::::::::k------------------!",
">-----------------6d:::::::::::::::::k------------------!",
">-----------------62:::::::::::::::::k------------------!",
">------------------_:::::::::::::::::b------------------!",
">------------------f:::::::::::::::::a------------------!",
">------------------2:::::::::::::::::k------------------!",
">------------------2:::::::::::::::::1------------------!",
">------------------o:::::::::::::::::c------------------!",
">------------------f:::::::::::::::::a------------------!",
">------------------2:::::::::::::::::1------------------!",
">------------------{^]ppqpp^ppppp^prps------------------!",
">-------------------------------------------------------!",
">-------------------------------------------------------!",
">-------------------------------------------------------!",
">-------------------------------------------------------!",
">-------------------------------------------------------!",
">-------------------------------------------------------!",
">-------------------------------------------------------!",
">-------------------------------------------------------!",
">-------------------------------------------------------!",
">-------------------------------------------------------!",
">-------------------------------------------------------!",
">-------------------------------------------------------!",
">-------------------------------------------------------!",
">-------------------------------------------------------!",
">-------------------------------------------------------!",
">-------------------------------------------------------!",
"t-------------------------------------------------------!",
"uv%w%%%%%%%%%%%%%%%%%%%%%%%%%%+%x++xyz------------------!",
":::::::::::::::::::::::::::::::::::::b------------------!",
":::::::::::::::::::::::::::::::::::::b------------------!",
":::::::::::::::::::::::::::::::::::::k------------------!",
":::::::::::::::::::::::::::::::::::::a------------------!",
":::::::::::::::::::::::::::::::::::::a------------------!",
":::::::::::::::::::::::::::::::::::::b------------------!",
":::::::::::::::::::::::::::::::::::::k------------------!",
":::::::::::::::::::::::::::::::::::::k------------------!",
":::::::::::::::::::::::::::::::::::::k------------------!",
":::::::::::::::::::::::::::::::::::::k------------------!",
":::::::::::::::::::::::::::::::::::::k------------------!",
":::::::::::::::::::::::::::::::::::::k------------------!",
":::::::::::::::::::::::::::::::::::::k------------------!",
":::::::::::::::::::::::::::::::::::::k------------------!",
":::::::::::::::::::::::::::::::::::::1------------------!",
":::::::::::::::::::::::::::::::::::::k------------------!",
":::::::::::::::::::::::::::::::::::::1------------------!",
":::::::::::::::::::::::::::::::::::::b------------------!",
"ABppqqqqqqqqqqqqqqqqqqqqqqqq]]]]]]]rv/------------------!",
"C-------------------------------------------------------!",
"=-------------------------------------------------------!",
"t-------------------------------------------------------!",
">-------------------------------------------------------!",
">-------------------------------------------------------!",
">-------------------------------------------------------!",
">-------------------------------------------------------!",
">-------------------------------------------------------!",
">-------------------------------------------------------!",
">-------------------------------------------------------!",
">-------------------------------------------------------!",
"D-------------------------------------------------------(",
">-------------------------------------------------------;",
"E-------------------------------------------------------,",
"C-------------------------------------------------------)",
"F-------------------------------------------------------!",
"t-------------------------------------------------------|",
"uG##$$$$$$$$$$$$$$$$$$$$$$$$$$$$$$$$$$$$$$$$$$$$$$$$$$%HI"};
