/* XPM */
static char * one_xpm[] = {
"57 130 28 1",
" 	c #1C1117",
".	c #CBCBCB",
"+	c #434343",
"@	c #4A4A4A",
"#	c #4C4C4C",
"$	c #4F4F4F",
"%	c #4D4D4D",
"&	c #484848",
"*	c #464646",
"=	c #D2D2D2",
"-	c #B3B3B3",
";	c #FFFFFF",
">	c #C5C5C5",
",	c #BABABA",
"'	c #C7C7C7",
")	c #B7B7B7",
"!	c #C4C4C4",
"~	c #C3C3C3",
"{	c #BFBFBF",
"]	c #B5B5B5",
"^	c #C6C6C6",
"/	c #B8B8B8",
"(	c #B6B6B6",
"_	c #CACACA",
":	c #474747",
"<	c #4B4B4B",
"[	c #4E4E4E",
"}	c #D5D5D5",
"                                     .+@#$@#########%&#*=",
"                                     -;;;;;;;;;;;;;;;;;;>",
"                                     ,;;;;;;;;;;;;;;;;;;'",
"                                     );;;;;;;;;;;;;;;;;;!",
"                                     );;;;;;;;;;;;;;;;;;!",
"                                     );;;;;;;;;;;;;;;;;;!",
"                                     );;;;;;;;;;;;;;;;;;!",
"                                     );;;;;;;;;;;;;;;;;;!",
"                                     );;;;;;;;;;;;;;;;;;!",
"                                     );;;;;;;;;;;;;;;;;;!",
"                                     );;;;;;;;;;;;;;;;;;!",
"                                     );;;;;;;;;;;;;;;;;;!",
"                                     );;;;;;;;;;;;;;;;;;!",
"                                     );;;;;;;;;;;;;;;;;;!",
"                                     );;;;;;;;;;;;;;;;;;!",
"                                     );;;;;;;;;;;;;;;;;;!",
"                                     );;;;;;;;;;;;;;;;;;!",
"                                     );;;;;;;;;;;;;;;;;;!",
"                                     );;;;;;;;;;;;;;;;;;!",
"                                     );;;;;;;;;;;;;;;;;;!",
"                                     );;;;;;;;;;;;;;;;;;!",
"                                     );;;;;;;;;;;;;;;;;;!",
"                                     );;;;;;;;;;;;;;;;;;!",
"                                     );;;;;;;;;;;;;;;;;;!",
"                                     );;;;;;;;;;;;;;;;;;!",
"                                     );;;;;;;;;;;;;;;;;;!",
"                                     );;;;;;;;;;;;;;;;;;!",
"                                     );;;;;;;;;;;;;;;;;;!",
"                                     );;;;;;;;;;;;;;;;;;!",
"                                     );;;;;;;;;;;;;;;;;;!",
"                                     );;;;;;;;;;;;;;;;;;!",
"                                     );;;;;;;;;;;;;;;;;;!",
"                                     );;;;;;;;;;;;;;;;;;!",
"                                     );;;;;;;;;;;;;;;;;;!",
"                                     );;;;;;;;;;;;;;;;;;!",
"                                     );;;;;;;;;;;;;;;;;;!",
"                                     );;;;;;;;;;;;;;;;;;!",
"                                     );;;;;;;;;;;;;;;;;;!",
"                                     );;;;;;;;;;;;;;;;;;!",
"                                     );;;;;;;;;;;;;;;;;;!",
"                                     );;;;;;;;;;;;;;;;;;!",
"                                     );;;;;;;;;;;;;;;;;;!",
"                                     );;;;;;;;;;;;;;;;;;!",
"                                     );;;;;;;;;;;;;;;;;;!",
"                                     );;;;;;;;;;;;;;;;;;!",
"                                     );;;;;;;;;;;;;;;;;;!",
"                                     );;;;;;;;;;;;;;;;;;!",
"                                     );;;;;;;;;;;;;;;;;;!",
"                                     );;;;;;;;;;;;;;;;;;!",
"                                     );;;;;;;;;;;;;;;;;;!",
"                                     );;;;;;;;;;;;;;;;;;!",
"                                     );;;;;;;;;;;;;;;;;;!",
"                                     );;;;;;;;;;;;;;;;;;!",
"                                     );;;;;;;;;;;;;;;;;;!",
"                                     );;;;;;;;;;;;;;;;;;!",
"                                     );;;;;;;;;;;;;;;;;;!",
"                                     );;;;;;;;;;;;;;;;;;!",
"                                     );;;;;;;;;;;;;;;;;;!",
"                                     );;;;;;;;;;;;;;;;;;!",
"                                     );;;;;;;;;;;;;;;;;;!",
"                                     );;;;;;;;;;;;;;;;;;>",
"                                     );;;;;;;;;;;;;;;;;;>",
"                                     );;;;;;;;;;;;;;;;;;>",
"                                     );;;;;;;;;;;;;;;;;;>",
"                                     );;;;;;;;;;;;;;;;;;>",
"                                     );;;;;;;;;;;;;;;;;;!",
"                                     );;;;;;;;;;;;;;;;;;!",
"                                     );;;;;;;;;;;;;;;;;;!",
"                                     );;;;;;;;;;;;;;;;;;!",
"                                     );;;;;;;;;;;;;;;;;;!",
"                                     );;;;;;;;;;;;;;;;;;!",
"                                     );;;;;;;;;;;;;;;;;;!",
"                                     );;;;;;;;;;;;;;;;;;!",
"                                     );;;;;;;;;;;;;;;;;;~",
"                                     );;;;;;;;;;;;;;;;;;~",
"                                     );;;;;;;;;;;;;;;;;;~",
"                                     );;;;;;;;;;;;;;;;;;~",
"                                     );;;;;;;;;;;;;;;;;;~",
"                                     );;;;;;;;;;;;;;;;;;~",
"                                     );;;;;;;;;;;;;;;;;;~",
"                                     );;;;;;;;;;;;;;;;;;~",
"                                     );;;;;;;;;;;;;;;;;;!",
"                                     );;;;;;;;;;;;;;;;;;!",
"                                     );;;;;;;;;;;;;;;;;;!",
"                                     );;;;;;;;;;;;;;;;;;!",
"                                     );;;;;;;;;;;;;;;;;;!",
"                                     );;;;;;;;;;;;;;;;;;!",
"                                     );;;;;;;;;;;;;;;;;;!",
"                                     );;;;;;;;;;;;;;;;;;!",
"                                     );;;;;;;;;;;;;;;;;;!",
"                                     );;;;;;;;;;;;;;;;;;!",
"                                     );;;;;;;;;;;;;;;;;;!",
"                                     );;;;;;;;;;;;;;;;;;!",
"                                     );;;;;;;;;;;;;;;;;;!",
"                                     );;;;;;;;;;;;;;;;;;!",
"                                     );;;;;;;;;;;;;;;;;;!",
"                                     );;;;;;;;;;;;;;;;;;!",
"                                     );;;;;;;;;;;;;;;;;;!",
"                                     );;;;;;;;;;;;;;;;;;!",
"                                     );;;;;;;;;;;;;;;;;;!",
"                                     );;;;;;;;;;;;;;;;;;!",
"                                     );;;;;;;;;;;;;;;;;;!",
"                                     );;;;;;;;;;;;;;;;;;!",
"                                     );;;;;;;;;;;;;;;;;;!",
"                                     );;;;;;;;;;;;;;;;;;!",
"                                     );;;;;;;;;;;;;;;;;;!",
"                                     );;;;;;;;;;;;;;;;;;!",
"                                     );;;;;;;;;;;;;;;;;;!",
"                                     );;;;;;;;;;;;;;;;;;!",
"                                     );;;;;;;;;;;;;;;;;;!",
"                                     );;;;;;;;;;;;;;;;;;!",
"                                     );;;;;;;;;;;;;;;;;;!",
"                                     );;;;;;;;;;;;;;;;;;!",
"                                     );;;;;;;;;;;;;;;;;;!",
"                                     );;;;;;;;;;;;;;;;;;!",
"                                     );;;;;;;;;;;;;;;;;;!",
"                                     );;;;;;;;;;;;;;;;;;!",
"                                     );;;;;;;;;;;;;;;;;;!",
"                                     );;;;;;;;;;;;;;;;;;!",
"                                     );;;;;;;;;;;;;;;;;;!",
"                                     );;;;;;;;;;;;;;;;;;!",
"                                     );;;;;;;;;;;;;;;;;;!",
"                                     );;;;;;;;;;;;;;;;;;!",
"                                     );;;;;;;;;;;;;;;;;;{",
"                                     ];;;;;;;;;;;;;;;;;;^",
"                                     -;;;;;;;;;;;;;;;;;;^",
"                                     /;;;;;;;;;;;;;;;;;;!",
"                                     /;;;;;;;;;;;;;;;;;;~",
"                                     (;;;;;;;;;;;;;;;;;;^",
"                                     _:%#%@<<<<<<<<##%[*}"};
