/* XPM */
static char * six_xpm[] = {
"57 130 82 1",
" 	c #606060",
".	c #494949",
"+	c #4B4B4B",
"@	c #4A4A4A",
"#	c #4C4C4C",
"$	c #4E4E4E",
"%	c #4D4D4D",
"&	c #434343",
"*	c #A1A1A1",
"=	c #1C1117",
"-	c #1D1D1D",
";	c #FFFFFF",
">	c #818181",
",	c #222222",
"'	c #828282",
")	c #1F1F1F",
"!	c #7F7F7F",
"~	c #191919",
"{	c #363636",
"]	c #3B3B3B",
"^	c #373737",
"/	c #383838",
"(	c #323232",
"_	c #6D6D6D",
":	c #C3C3C3",
"<	c #CCCCCC",
"[	c #6E6E6E",
"}	c #808080",
"|	c #7E7E7E",
"1	c #868686",
"2	c #898989",
"3	c #D4D4D4",
"4	c #B6B6B6",
"5	c #878787",
"6	c #E6E6E6",
"7	c #282828",
"8	c #848484",
"9	c #3D3D3D",
"0	c #404040",
"a	c #3E3E3E",
"b	c #414141",
"c	c #3C3C3C",
"d	c #313131",
"e	c #9B9B9B",
"f	c #6C6C6C",
"g	c #696969",
"h	c #6F6F6F",
"i	c #181818",
"j	c #3A3A3A",
"k	c #393939",
"l	c #424242",
"m	c #464646",
"n	c #454545",
"o	c #444444",
"p	c #2F2F2F",
"q	c #A0A0A0",
"r	c #FEFEFE",
"s	c #7C7C7C",
"t	c #7B7B7B",
"u	c #7D7D7D",
"v	c #202020",
"w	c #515151",
"x	c #484848",
"y	c #474747",
"z	c #525252",
"A	c #545454",
"B	c #535353",
"C	c #4F4F4F",
"D	c #C1C1C1",
"E	c #676767",
"F	c #E1E1E1",
"G	c #6B6B6B",
"H	c #D2D2D2",
"I	c #DDDDDD",
"J	c #A8A8A8",
"K	c #6A6A6A",
"L	c #818080",
"M	c #171717",
"N	c #1E1E1E",
"O	c #1C1C1C",
"P	c #838383",
"Q	c #A2A2A2",
" .++@@++@########################################$.%++&*=",
"-;;;;;;;;;;;;;;;;;;;;;;;;;;;;;;;;;;;;;;;;;;;;;;;;;;;;;;>=",
",;;;;;;;;;;;;;;;;;;;;;;;;;;;;;;;;;;;;;;;;;;;;;;;;;;;;;;'=",
");;;;;;;;;;;;;;;;;;;;;;;;;;;;;;;;;;;;;;;;;;;;;;;;;;;;;;!=",
");;;;;;;;;;;;;;;;;;;;;;;;;;;;;;;;;;;;;;;;;;;;;;;;;;;;;;!=",
");;;;;;;;;;;;;;;;;;;;;;;;;;;;;;;;;;;;;;;;;;;;;;;;;;;;;;!=",
");;;;;;;;;;;;;;;;;;;;;;;;;;;;;;;;;;;;;;;;;;;;;;;;;;;;;;!=",
");;;;;;;;;;;;;;;;;;;;;;;;;;;;;;;;;;;;;;;;;;;;;;;;;;;;;;!=",
");;;;;;;;;;;;;;;;;;;;;;;;;;;;;;;;;;;;;;;;;;;;;;;;;;;;;;!=",
");;;;;;;;;;;;;;;;;;;;;;;;;;;;;;;;;;;;;;;;;;;;;;;;;;;;;;!=",
");;;;;;;;;;;;;;;;;;;;;;;;;;;;;;;;;;;;;;;;;;;;;;;;;;;;;;!=",
");;;;;;;;;;;;;;;;;;;;;;;;;;;;;;;;;;;;;;;;;;;;;;;;;;;;;;!=",
");;;;;;;;;;;;;;;;;;;;;;;;;;;;;;;;;;;;;;;;;;;;;;;;;;;;;;!=",
");;;;;;;;;;;;;;;;;;;;;;;;;;;;;;;;;;;;;;;;;;;;;;;;;;;;;;!=",
");;;;;;;;;;;;;;;;;;;;;;;;;;;;;;;;;;;;;;;;;;;;;;;;;;;;;;!=",
");;;;;;;;;;;;;;;;;;;;;;;;;;;;;;;;;;;;;;;;;;;;;;;;;;;;;;!=",
");;;;;;;;;;;;;;;;;;;;;;;;;;;;;;;;;;;;;;;;;;;;;;;;;;;;;;!=",
");;;;;;;;;;;;;;;;;;;;;;;;;;;;;;;;;;;;;;;;;;;;;;;;;;;;;;!=",
");;;;;;;;;;;;;;;;;~{]^/{/^^^^^^^^{/^(;;;;;;;;;;;;;;;;;;!=",
");;;;;;;;;;;;;;;;;_=================:<;;;;;;;;;;;;;;;;;!=",
");;;;;;;;;;;;;;;;;_=================:<;;;;;;;;;;;;;;;;;!=",
");;;;;;;;;;;;;;;;;_=================:<;;;;;;;;;;;;;;;;;!=",
");;;;;;;;;;;;;;;;;_=================:<;;;;;;;;;;;;;;;;;!=",
");;;;;;;;;;;;;;;;;_=================:<;;;;;;;;;;;;;;;;;!=",
");;;;;;;;;;;;;;;;;_=================:<;;;;;;;;;;;;;;;;;!=",
");;;;;;;;;;;;;;;;;[=================:<;;;;;;;;;;;;;;;;;!=",
");;;;;;;;;;;;;;;;;[=================:<;;;;;;;;;;;;;;;;;!=",
");;;;;;;;;;;;;;;;;_=================:<;;;;;;;;;;;;;;;;;!=",
");;;;;;;;;;;;;;;;;_=================:<;;;;;;;;;;;;;;;;;!=",
");;;;;;;;;;;;;;;;;_=================:<;;;;;;;;;;;;;;;;;!=",
");;;;;;;;;;;;;;;;;_=================:<;;;;;;;;;;;;;;;;;!=",
");;;;;;;;;;;;;;;;;_=================:<;;;;;;;;;;;;;;;;;!=",
");;;;;;;;;;;;;;;;;_=================:<;;;;;;;;;;;;;;;;;!=",
");;;;;;;;;;;;;;;;;_=================:<;;;;;;;;;;;;;;;;;!=",
");;;;;;;;;;;;;;;;;_=================:<;;;;;;;;;;;;;;;;;!=",
");;;;;;;;;;;;;;;;;_=================:<;;;;;;;;;;;;;;;;;}=",
");;;;;;;;;;;;;;;;;_=================:<;;;;;;;;;;;;;;;;;}=",
");;;;;;;;;;;;;;;;;_=================:<;;;;;;;;;;;;;;;;;}=",
");;;;;;;;;;;;;;;;;_=================:<;;;;;;;;;;;;;;;;;}=",
");;;;;;;;;;;;;;;;;_=================:<;;;;;;;;;;;;;;;;;}=",
");;;;;;;;;;;;;;;;;_=================:<;;;;;;;;;;;;;;;;;!=",
");;;;;;;;;;;;;;;;;_=================:<;;;;;;;;;;;;;;;;;!=",
");;;;;;;;;;;;;;;;;_=================:<;;;;;;;;;;;;;;;;;!=",
");;;;;;;;;;;;;;;;;_=================:<;;;;;;;;;;;;;;;;;}=",
");;;;;;;;;;;;;;;;;_=================:<;;;;;;;;;;;;;;;;;}=",
");;;;;;;;;;;;;;;;;_=================:<;;;;;;;;;;;;;;;;;!=",
");;;;;;;;;;;;;;;;;_=================:<;;;;;;;;;;;;;;;;;|=",
");;;;;;;;;;;;;;;;;_=================:<;;;;;;;;;;;;;;;;;!=",
");;;;;;;;;;;;;;;;;_=================:<;;;;;;;;;;;;;;;;;'=",
");;;;;;;;;;;;;;;;;_=================:<;;;;;;;;;;;;;;;;;1=",
");;;;;;;;;;;;;;;;;_=================:<;;;;;;;;;;;;;;;;;2=",
");;;;;;;;;;;;;;;;;_=================34;;;;;;;;;;;;;;;;;5=",
");;;;;;;;;;;;;;;;;_=================3<;;;;;;;;;;;;;;;;;>=",
");;;;;;;;;;;;;;;;;_=================67;;;;;;;;;;;;;;;;;8=",
");;;;;;;;;;;;;;;;;_==================;;;;;;;;;;;;;;;;;;!=",
");;;;;;;;;;;;;;;;;_==================@90a00000000bacbade=",
");;;;;;;;;;;;;;;;;_======================================",
");;;;;;;;;;;;;;;;;_======================================",
");;;;;;;;;;;;;;;;;_======================================",
");;;;;;;;;;;;;;;;;_======================================",
");;;;;;;;;;;;;;;;;_======================================",
");;;;;;;;;;;;;;;;;_======================================",
");;;;;;;;;;;;;;;;;_======================================",
");;;;;;;;;;;;;;;;;_======================================",
");;;;;;;;;;;;;;;;;_======================================",
");;;;;;;;;;;;;;;;;_======================================",
");;;;;;;;;;;;;;;;;_======================================",
");;;;;;;;;;;;;;;;;_======================================",
");;;;;;;;;;;;;;;;;[======================================",
");;;;;;;;;;;;;;;;;f======================================",
");;;;;;;;;;;;;;;;;[======================================",
");;;;;;;;;;;;;;;;;g======================================",
");;;;;;;;;;;;;;;;;f======================================",
");;;;;;;;;;;;;;;;;h======================================",
");;;;;;;;;;;;;;;;;i9/j/{]kkkkkkk//kk^^]lmml99lmn&oo9{{pq=",
");;;;;;;;;;;;;;;;;;;;;;;;;;;;;;;;;;;;;;;;r;;;;;;;;;;;;;|=",
");;;;;;;;;;;;;;;;;;;;;;;;;;;;;;;;;;;;;;;;;;;;;;;;;;;;;;|=",
");;;;;;;;;;;;;;;;;;;;;;;;;;;;;;;;;;;;;;;;;;;;;;;;;;;;r;s=",
");;;;;;;;;;;;;;;;;;;;;;;;;;;;;;;;;;;;;;;;;;;;;;;;;;;;r;!=",
");;;;;;;;;;;;;;;;;;;;;;;;;;;;;;;;;;;;;;;;;;;;;;;;;;;;r;!=",
");;;;;;;;;;;;;;;;;;;;;;;;;;;;;;;;;;;;;;;;;;;;;;;;;;;;;;t=",
");;;;;;;;;;;;;;;;;;;;;;;;;;;;;;;;;;;;;;;;;;;;;;;;;;;;;;u=",
");;;;;;;;;;;;;;;;;;;;;;;;;;;;;;;;;;;;;;;;;;;;;;;;;;;;;;}=",
");;;;;;;;;;;;;;;;;;;;;;;;;;;;;;;;;;;;;;;;;;;;;;;;;;;;;;!=",
");;;;;;;;;;;;;;;;;;;;;;;;;;;;;;;;;;;;;;;;;;;;;;;;;;;;;;!=",
");;;;;;;;;;;;;;;;;;;;;;;;;;;;;;;;;;;;;;;;;;;;;;;;;;;;;;!=",
");;;;;;;;;;;;;;;;;;;;;;;;;;;;;;;;;;;;;;;;;;;;;;;;;;;;;;!=",
");;;;;;;;;;;;;;;;;;;;;;;;;;;;;;;;;;;;;;;;;;;;;;;;;;;;;;!=",
");;;;;;;;;;;;;;;;;;;;;;;;;;;;;;;;;;;;;;;;;;;;;;;;;;;;;;!=",
");;;;;;;;;;;;;;;;;;;;;;;;;;;;;;;;;;;;;;;;;;;;;;;;;;;;;;!=",
");;;;;;;;;;;;;;;;;;;;;;;;;;;;;;;;;;;;;;;;;;;;;;;;;;;;;;!=",
");;;;;;;;;;;;;;;;;;;;;;;;;;;;;;;;;;;;;;;;;;;;;;;;;;;;;;!=",
");;;;;;;;;;;;;;;;;vwmx+@yx.%zABBAzC#&;;;;;;;;;;;;;;;;;;!=",
");;;;;;;;;;;;;;;;;[=================D;;;;;;;;;;;;;;;;;;!=",
");;;;;;;;;;;;;;;;;E=================F;;;;;;;;;;;;;;;;;;!=",
");;;;;;;;;;;;;;;;;G=================D;;;;;;;;;;;;;;;;;;!=",
");;;;;;;;;;;;;;;;;f=================H;;;;;;;;;;;;;;;;;;!=",
");;;;;;;;;;;;;;;;;[=================6;;;;;;;;;;;;;;;;;;!=",
");;;;;;;;;;;;;;;;;_=================I;;;;;;;;;;;;;;;;;;!=",
");;;;;;;;;;;;;;;;;_=================H;;;;;;;;;;;;;;;;;;!=",
");;;;;;;;;;;;;;;;;_=================H;;;;;;;;;;;;;;;;;;!=",
");;;;;;;;;;;;;;;;;_=================H;;;;;;;;;;;;;;;;;;!=",
");;;;;;;;;;;;;;;;;_=================D;;;;;;;;;;;;;;;;;;!=",
");;;;;;;;;;;;;;;;;_=================J;;;;;;;;;;;;;;;;;;!=",
");;;;;;;;;;;;;;;;;_=================J;;;;;;;;;;;;;;;;;;!=",
");;;;;;;;;;;;;;;;;_=================J;;;;;;;;;;;;;;;;;;!=",
");;;;;;;;;;;;;;;;;_=================J;;;;;;;;;;;;;;;;;;!=",
");;;;;;;;;;;;;;;;;f=================Hr;;;;;;;;;;;;;;;;;!=",
");;;;;;;;;;;;;;;;;K==================;;;;;;;;;;;;;;;;;;!=",
");;;;;;;;;;;;;;;;;f==================r;;;;;;;;;;;;;;;;;!=",
");;;;;;;;;;;;;;;;;[=================Lr;;;;;;;;;;;;;;;;;!=",
");;;;;;;;;;;;;;;;;M9^/^/k//////////{d;;;;;;;;;;;;;;;;;;!=",
");;;;;;;;;;;;;;;;;;;;;;;;;;;;;;;;;;;;;;;;;;;;;;;;;;;;;;!=",
");;;;;;;;;;;;;;;;;;;;;;;;;;;;;;;;;;;;;;;;;;;;;;;;;;;;;;!=",
");;;;;;;;;;;;;;;;;;;;;;;;;;;;;;;;;;;;;;;;;;;;;;;;;;;;;;!=",
");;;;;;;;;;;;;;;;;;;;;;;;;;;;;;;;;;;;;;;;;;;;;;;;;;;;;;!=",
");;;;;;;;;;;;;;;;;;;;;;;;;;;;;;;;;;;;;;;;;;;;;;;;;;;;;;!=",
");;;;;;;;;;;;;;;;;;;;;;;;;;;;;;;;;;;;;;;;;;;;;;;;;;;;;;!=",
");;;;;;;;;;;;;;;;;;;;;;;;;;;;;;;;;;;;;;;;;;;;;;;;;;;;;;!=",
");;;;;;;;;;;;;;;;;;;;;;;;;;;;;;;;;;;;;;;;;;;;;;;;;;;;;;!=",
");;;;;;;;;;;;;;;;;;;;;;;;;;;;;;;;;;;;;;;;;;;;;;;;;;;;;;!=",
");;;;;;;;;;;;;;;;;;;;;;;;;;;;;;;;;;;;;;;;;;;;;;;;;;;;;;!=",
");;;;;;;;;;;;;;;;;;;;;;;;;;;;;;;;;;;;;;;;;;;;;;;;;;;;;;!=",
"v;;;;;;;;;;;;;;;;;;;;;;;;;;;;;;;;;;;;;;;;;;;;;;;;;;;;;;>=",
"N;;;;;;;;;;;;;;;;;;;;;;;;;;;;;;;;;;;;;;;;;;;;;;;;;;;;;;}=",
"v;;;;;;;;;;;;;;;;;;;;;;;;;;;;;;;;;;;;;;;;;;;;;;;;;;;;;;!=",
");;;;;;;;;;;;;;;;;;;;;;;;;;;;;;;;;;;;;;;;;;;;;;;;;;;;;;|=",
",;;;;;;;;;;;;;;;;;;;;;;;;;;;;;;;;;;;;;;;;;;;;;;;;;;;;;;'=",
"O;;;;;;;;;;;;;;;;;;;;;;;;;;;;;;;;;;;;;;;;;;;;;;;;;;;;;;P=",
" .#@@+@++++++++++++++++++++++++++++++++++++++++++@@$#@oQ="};
