/* XPM */
static char * three_xpm[] = {
"57 130 88 1",
" 	c #9A9A9A",
".	c #414141",
"+	c #4E4E4E",
"@	c #545454",
"#	c #585858",
"$	c #535353",
"%	c #595959",
"&	c #565656",
"*	c #494949",
"=	c #4B4B4B",
"-	c #4C4C4C",
";	c #4A4A4A",
">	c #626262",
",	c #1C1117",
"'	c #7A7A7A",
")	c #FFFFFF",
"!	c #C2C2C2",
"~	c #1F1F1F",
"{	c #7E7E7E",
"]	c #3D3D3D",
"^	c #E1E1E1",
"/	c #828282",
"(	c #232323",
"_	c #7B7B7B",
":	c #202020",
"<	c #A3A3A3",
"[	c #838383",
"}	c #878787",
"|	c #606060",
"1	c #868686",
"2	c #818181",
"3	c #7C7C7C",
"4	c #7D7D7D",
"5	c #323232",
"6	c #373737",
"7	c #383838",
"8	c #363636",
"9	c #353535",
"0	c #393939",
"a	c #343434",
"b	c #1B1B1B",
"c	c #AAA9AA",
"d	c #6A6A6A",
"e	c #6B6B6B",
"f	c #828181",
"g	c #181818",
"h	c #DFDFDF",
"i	c #9C9C9C",
"j	c #424242",
"k	c #404040",
"l	c #3F3F3F",
"m	c #3C3C3C",
"n	c #6C6C6C",
"o	c #686868",
"p	c #696969",
"q	c #6F6F6F",
"r	c #666666",
"s	c #2A2A2A",
"t	c #3B3B3B",
"u	c #191919",
"v	c #808080",
"w	c #7F7F7F",
"x	c #9F9F9F",
"y	c #474747",
"z	c #464646",
"A	c #515151",
"B	c #222222",
"C	c #6D6D6D",
"D	c #212121",
"E	c #252525",
"F	c #FEFEFE",
"G	c #2B2B2B",
"H	c #2E2E2E",
"I	c #2D2D2D",
"J	c #2C2C2C",
"K	c #262626",
"L	c #3A3A3A",
"M	c #171717",
"N	c #1E1E1E",
"O	c #282828",
"P	c #303030",
"Q	c #A1A1A1",
"R	c #454545",
"S	c #4D4D4D",
"T	c #4F4F4F",
"U	c #505050",
"V	c #555555",
"W	c #484848",
" .+@#$%&+*=-=;==========-----------------------;==;;==*>,",
"')))))!))))))))))))))))))))))))))))))))))))))))))))))))~,",
"{))))]^/)))))))))))))))))))))))))))))))))))))))))))))))(,",
"_))))))^))))))))))))))))))))))))))))))))))))))))))))))):,",
"')))))<^))))))))))))))))))))))))))))))))))))))))))))))):,",
"_)))))))))))))))))))))))))))))))))))))))))))))))))))))):,",
"[)^))^))))))))))))))))))))))))))))))))))))))))))))))))):,",
"})|))^))))))))))))))))))))))))))))))))))))))))))))))))):,",
"1)])^)))))))))))))))))))))))))))))))))))))))))))))))))):,",
"1)])))))))))))))))))))))))))))))))))))))))))))))))))))):,",
"2)))))))))))))))))))))))))))))))))))))))))))))))))))))):,",
"_)))))))))))))))))))))))))))))))))))))))))))))))))))))):,",
"3)))))))))))))))))))))))))))))))))))))))))))))))))))))):,",
"4)))))))))))))))))))))))))))))))))))))))))))))))))))))):,",
"{)))))))))))))))))))))))))))))))))))))))))))))))))))))):,",
"4)))))))))))))))))))))))))))))))))))))))))))))))))))))):,",
"3)))))))))))))))))))))))))))))))))))))))))))))))))))))):,",
"3)))))))))))))))))))))))))))))))))))))))))))))))))))))):,",
"4))))))))))))))))))56786666666677890ab))))))))))))))))):,",
"4)))))))))))))))))/c,,,,,,,,,,,,,,,,,d))))))))))))))))):,",
"4)))))))))))))))))/c,,,,,,,,,,,,,,,,,d))))))))))))))))):,",
"4)))))))))))))))))/c,,,,,,,,,,,,,,,,,d))))))))))))))))):,",
"4)))))))))))))))))/c,,,,,,,,,,,,,,,,,d))))))))))))))))):,",
"{)))))))))))))))))/c,,,,,,,,,,,,,,,,,d))))))))))))))))):,",
"{)))))))))))))))))/c,,,,,,,,,,,,,,,,,d))))))))))))))))):,",
"{)))))))))))))))))/c,,,,,,,,,,,,,,,,,e))))))))))))))))):,",
"{)))))))))))))))))/c,,,,,,,,,,,,,,,,,d))))))))))))))))):,",
"{)))))))))))))))))/f,,,,,,,,,,,,,,,,,d))))))))))))))))):,",
"{)))))))))))))))))/f,,,,,,,,,,,,,,,,,d))))))))))))))))):,",
"{)))))))))))))))))/f,,,,,,,,,,,,,,,,,d))))))))))))))))):,",
"{)))))))))))))))))/f,,,,,,,,,,,,,,,,,d))))))))))))))))):,",
"{)))))))))))))))))/f,,,,,,,,,,,,,,,,,d))))))))))))))))):,",
"{)))))))))))))))))/f,,,,,,,,,,,,,,,,,d))))))))))))))))):,",
"{)))))))))))))))))/f,,,,,,,,,,,,,,,,,d))))))))))))))))):,",
"{)))))))))))))))))/f,,,,,,,,,,,,,,,,,d))))))))))))))))):,",
"{)))))))))))))))))/f,,,,,,,,,,,,,,,,,d))))))))))))))))):,",
"{)))))))))))))))))/f,,,,,,,,,,,,,,,,,d))))))))))))))))):,",
"{)))))))))))))))))/f,,,,,,,,,,,,,,,,,d))))))))))))))))):,",
"{)))))))))))))))))/f,,,,,,,,,,,,,,,,,d))))))))))))))))):,",
"{)))))))))))))))))/f,,,,,,,,,,,,,,,,,d))))))))))))))))):,",
"{)))))))))))))))))/f,,,,,,,,,,,,,,,,,d))))))))))))))))):,",
"{)))))))))))))))))/f,,,,,,,,,,,,,,,,,d))))))))))))))))):,",
"{)))))))))))))))))/f,,,,,,,,,,,,,,,,,d))))))))))))))))):,",
"{)))))))))))))))))/f,,,,,,,,,,,,,,,,,d))))))))))))))))):,",
"{)))))))))))))))))/f,,,,,,,,,,,,,,,,,d))))))))))))))))):,",
"{)))))))))))))))))/f,,,,,,,,,,,,,,,,,d))))))))))))))))):,",
"{)))))))))))))))))/f,,,,,,,,,,,,,,,,,d))))))))))))))))):,",
"{)))))))))))))))))/f,,,,,,,,,,,,,,,,,d))))))))))))))))):,",
"{)))))))))))))))))/f,,,,,,,,,,,,,,,,,d))))))))))))))))):,",
"{)))))))))))))))))/f,,,,,,,,,,,,,,,,,d))))))))))))))))):,",
"{)))))))))))))))))/f,,,,,,,,,,,,,,,,,d))))))))))))))))):,",
"2)))))))))))))))))/f,,,,,,,,,,,,,,,,,d))))))))))))))))):,",
"3)))))))))))))))))/c,,,,,,,,,,,,,,,,,d))))))))))))))))):,",
"2)))))))))))))))))gh,,,,,,,,,,,,,,,,,d))))))))))))))))):,",
"{)))))))))))))))))^,,,,,,,,,,,,,,,,,,d))))))))))))))))):,",
"i5jk]lkkkkkkkkk].m-,,,,,,,,,,,,,,,,,,d))))))))))))))))):,",
",,,,,,,,,,,,,,,,,,,,,,,,,,,,,,,,,,,,,d))))))))))))))))):,",
",,,,,,,,,,,,,,,,,,,,,,,,,,,,,,,,,,,,,d))))))))))))))))):,",
",,,,,,,,,,,,,,,,,,,,,,,,,,,,,,,,,,,,,d))))))))))))))))):,",
",,,,,,,,,,,,,,,,,,,,,,,,,,,,,,,,,,,,,d))))))))))))))))):,",
",,,,,,,,,,,,,,,,,,,,,,,,,,,,,,,,,,,,,d))))))))))))))))):,",
",,,,,,,,,,,,,,,,,,,,,,,,,,,,,,,,,,,,,d))))))))))))))))):,",
",,,,,,,,,,,,,,,,,,,,,,,,,,,,,,,,,,,,,d))))))))))))))))):,",
",,,,,,,,,,,,,,,,,,,,,,,,,,,,,,,,,,,,,d))))))))))))))))):,",
",,,,,,,,,,,,,,,,,,,,,,,,,,,,,,,,,,,,,d))))))))))))))))):,",
",,,,,,,,,,,,,,,,,,,,,,,,,,,,,,,,,,,,,d))))))))))))))))):,",
",,,,,,,,,,,,,,,,,,,,,,,,,,,,,,,,,,,,,d))))))))))))))))):,",
",,,,,,,,,,,,,,,,,,,,,,,,,,,,,,,,,,,,,n))))))))))))))))):,",
",,,,,,,,,,,,,,,,,,,,,,,,,,,,,,,,,,,,,o))))))))))))))))):,",
",,,,,,,,,,,,,,,,,,,,,,,,,,,,,,,,,,,,,p))))))))))))))))):,",
",,,,,,,,,,,,,,,,,,,,,,,,,,,,,,,,,,,,,q))))))))))))))))):,",
",,,,,,,,,,,,,,,,,,,,,,,,,,,,,,,,,,,,,p))))))))))))))))):,",
",,,,,,,,,,,,,,,,,,,,,,,,,,,,,,,,,,,,,r))))))))))))))))):,",
",,,,,,,,,,,,,,,,,,,,,,,,,,,,,,,,,,,,,d))))))))))))))))):,",
" s000t700000000000000000000000000076]u))))))))))))))))):,",
"4)))))))))))))))))))))))))))))))))))))))))))))))))))))):,",
"v)))))))))))))))))))))))))))))))))))))))))))))))))))))):,",
"{)))))))))))))))))))))))))))))))))))))))))))))))))))))):,",
"{)))))))))))))))))))))))))))))))))))))))))))))))))))))):,",
"w)))))))))))))))))))))))))))))))))))))))))))))))))))))):,",
"4)))))))))))))))))))))))))))))))))))))))))))))))))))))):,",
"{)))))))))))))))))))))))))))))))))))))))))))))))))))))):,",
"{)))))))))))))))))))))))))))))))))))))))))))))))))))))):,",
"{)))))))))))))))))))))))))))))))))))))))))))))))))))))):,",
"{)))))))))))))))))))))))))))))))))))))))))))))))))))))):,",
"4)))))))))))))))))))))))))))))))))))))))))))))))))))))):,",
"{)))))))))))))))))))))))))))))))))))))))))))))))))))))):,",
"w)))))))))))))))))))))))))))))))))))))))))))))))))))))):,",
"{)))))))))))))))))))))))))))))))))))))))))))))))))))))):,",
"{)))))))))))))))))))))))))))))))))))))))))))))))))))))):,",
"w)))))))))))))))))))))))))))))))))))))))))))))))))))))):,",
"/)))))))))))))))))))))))))))))))))))))))))))))))))))))):,",
"xty;zz=************************z=;*yAB))))))))))))))))):,",
",,,,,,,,,,,,,,,,,,,,,,,,,,,,,,,,,,,,,C))))))))))))))))):,",
",,,,,,,,,,,,,,,,,,,,,,,,,,,,,,,,,,,,,o)))))))))))))))))D,",
",,,,,,,,,,,,,,,,,,,,,,,,,,,,,,,,,,,,,n))))))))))))))))):,",
",,,,,,,,,,,,,,,,,,,,,,,,,,,,,,,,,,,,,d))))))))))))))))):,",
",,,,,,,,,,,,,,,,,,,,,,,,,,,,,,,,,,,,,C))))))))))))))))):,",
",,,,,,,,,,,,,,,,,,,,,,,,,,,,,,,,,,,,,d))))))))))))))))):,",
",,,,,,,,,,,,,,,,,,,,,,,,,,,,,,,,,,,,,d)))))))))))))))))D,",
",,,,,,,,,,,,,,,,,,,,,,,,,,,,,,,,,,,,,d))))))))))))))))):,",
",,,,,,,,,,,,,,,,,,,,,,,,,,,,,,,,,,,,,d)))))))))))))))))~,",
",,,,,,,,,,,,,,,,,,,,,,,,,,,,,,,,,,,,,d)))))))))))))))))~,",
",,,,,,,,,,,,,,,,,,,,,,,,,,,,,,,,,,,,,d)))))))))))))))))D,",
",,,,,,,,,,,,,,,,,,,,,,,,,,,,,,,,,,,,,d)))))))))))))))))E,",
",,,,,,,,,,,,,,,,,,,,,,,,,,,,,,,,,,,,,d))))))))))))))))FG,",
",,,,,,,,,,,,,,,,,,,,,,,,,,,,,,,,,,,,,d)))))))))))))))))H,",
",,,,,,,,,,,,,,,,,,,,,,,,,,,,,,,,,,,,,d)))))))))))))))))I,",
",,,,,,,,,,,,,,,,,,,,,,,,,,,,,,,,,,,,,d)))))))))))))))))J,",
",,,,,,,,,,,,,,,,,,,,,,,,,,,,,,,,,,,,,e)))))))))))))))))I,",
",,,,,,,,,,,,,,,,,,,,,,,,,,,,,,,,,,,,,C)))))))))))))))))I,",
" KL8La977777777777777777777777766678tM)))))))))))))))))E,",
"v))))))))))))))))))))))))))))))))))))))))))))))))))))))N,",
"w))))))))))))))))))))))))))))))))))))))))))))))))))))))B,",
"{))))))))))))))))))))))))))))))))))))))))))))))))))))))J,",
"{))))))))))))))))))))))))))))))))))))))))))))))))))))))s,",
"{))))))))))))))))))))))))))))))))))))))))))))))))))))))B,",
"{))))))))))))))))))))))))))))))))))))))))))))))))))))))N,",
"{)))))))))))))))))))))))))))))))))))))))))))))))))))))):,",
"{))))))))))))))))))))))))))))))))))))))))))))))))))))))D,",
"{)))))))))))))))))))))))))))))))))))))))))))))))))))))):,",
"{))))))))))))))))))))))))))))))))))))))))))))))))))))))~,",
"{))))))))))))))))))))))))))))))))))))))))))))))))))))))D,",
"v))))))))))))))))))))))))))))))))))))))))))))))))))))))O,",
"w)))))))))))))))))))))))))))))))))))))))))))))))))))))FJ,",
"{))))))))))))))))))))))))))))))))))))))))))))))))))))))P,",
"4))))))))))))))))))))))))))))))))))))))))))))))))))))))I,",
"v))))))))))))))))))))))))))))))))))))))))))))))))))))))I,",
"2)))))))))))))))))))))))))))))))))))))))))))))))))))))):,",
"QR=ST*=============;;;;=====;;;=;;=;=U&%VT*yW;=@&&#VT=y|,"};
