/* XPM */
static char * eight_xpm[] = {
"57 130 64 1",
" 	c #D3D3D3",
".	c #444444",
"+	c #4A4A4A",
"@	c #4B4B4B",
"#	c #4E4E4E",
"$	c #4C4C4C",
"%	c #D9D9D9",
"&	c #C1C1C1",
"*	c #FFFFFF",
"=	c #C8C8C8",
"-	c #C5C5C5",
";	c #C9C9C9",
">	c #C2C2C2",
",	c #272727",
"'	c #3A3A3A",
")	c #343434",
"!	c #373737",
"~	c #363636",
"{	c #383838",
"]	c #353535",
"^	c #2A2A2A",
"/	c #B8B8B8",
"(	c #1C1117",
"_	c #B1B1B1",
":	c #B0B0B0",
"<	c #B9B9B9",
"[	c #AFAFAF",
"}	c #B4B4B4",
"|	c #B5B5B5",
"1	c #BBBBBB",
"2	c #BABABA",
"3	c #ADADAD",
"4	c #B6B6B6",
"5	c #292929",
"6	c #3C3C3C",
"7	c #393939",
"8	c #3B3B3B",
"9	c #252525",
"0	c #494949",
"a	c #484848",
"b	c #4D4D4D",
"c	c #4F4F4F",
"d	c #323232",
"e	c #B7B7B7",
"f	c #B2B2B2",
"g	c #ACACAC",
"h	c #262626",
"i	c #333333",
"j	c #3E3E3E",
"k	c #282828",
"l	c #FEFEFE",
"m	c #C0C0C0",
"n	c #C6C6C6",
"o	c #CBCBCB",
"p	c #CACACA",
"q	c #D1D1D1",
"r	c #474747",
"s	c #555555",
"t	c #565656",
"u	c #545454",
"v	c #505050",
"w	c #575757",
"x	c #515151",
"y	c #D8D8D8",
" .+@#+$$$$$$$$$$$$$$$$$$$$$$$$$$$$$$$$$$$$$$$$$$$$$$$$@@%",
"&*******************************************************=",
"-*******************************************************;",
">*******************************************************=",
">*******************************************************=",
">*******************************************************=",
">*******************************************************=",
">*******************************************************=",
">*******************************************************=",
">*******************************************************=",
">*******************************************************=",
">*******************************************************=",
">*******************************************************=",
">*******************************************************=",
">*******************************************************=",
">*******************************************************=",
">*******************************************************=",
">*******************************************************=",
">******************,')!!!!!!!!!~{!]'!^******************=",
">******************/(((((((((((((((((_******************=",
">******************/(((((((((((((((((:******************=",
">******************/(((((((((((((((((_******************=",
">******************/(((((((((((((((((_******************=",
">******************/(((((((((((((((((_******************=",
">******************/(((((((((((((((((_******************=",
">******************/(((((((((((((((((_******************=",
">******************/(((((((((((((((((_******************=",
">******************<(((((((((((((((((_******************=",
">******************<(((((((((((((((((_******************=",
">******************<(((((((((((((((((_******************=",
">******************<(((((((((((((((((_******************=",
">******************<(((((((((((((((((_******************=",
">******************<(((((((((((((((((_******************=",
">******************<(((((((((((((((((_******************=",
">******************<(((((((((((((((((_******************=",
">******************<(((((((((((((((((_******************=",
">******************<(((((((((((((((((_******************=",
">******************<(((((((((((((((((_******************=",
">******************<(((((((((((((((((_******************=",
">******************<(((((((((((((((((_******************=",
">******************<(((((((((((((((((_******************=",
">******************<(((((((((((((((((_******************=",
">******************<(((((((((((((((((_******************=",
">******************<(((((((((((((((((_******************=",
">******************<(((((((((((((((((_******************=",
">******************<(((((((((((((((((_******************=",
">******************<(((((((((((((((((_******************=",
">******************<(((((((((((((((((_******************=",
">******************<(((((((((((((((((_******************=",
">******************<(((((((((((((((((_******************=",
">******************<(((((((((((((((((_******************=",
">******************<(((((((((((((((((_******************=",
">******************<(((((((((((((((((_******************=",
">******************<(((((((((((((((((_******************=",
">******************<(((((((((((((((((_******************=",
">******************<(((((((((((((((((_******************=",
">******************<(((((((((((((((((_******************=",
">******************<(((((((((((((((((_******************=",
">******************<(((((((((((((((((_******************=",
">******************<(((((((((((((((((_******************=",
">******************<(((((((((((((((((_******************=",
">******************<(((((((((((((((((_******************=",
">******************<(((((((((((((((((_******************=",
">******************<(((((((((((((((((_******************=",
">******************<(((((((((((((((((_******************=",
">******************<(((((((((((((((((_******************=",
">******************<(((((((((((((((((_******************=",
">******************/(((((((((((((((((_******************=",
">******************<((((((((((((((((([******************=",
">******************}(((((((((((((((((|******************=",
">******************1((((((((((((((((([******************=",
">******************2(((((((((((((((((_******************=",
">******************2(((((((((((((((((3******************=",
">******************4(((((((((((((((((}******************=",
">******************56{77777777{{'{8!69******************=",
">*******************************************************=",
">*******************************************************=",
">*******************************************************=",
">*******************************************************=",
">*******************************************************=",
">*******************************************************=",
">*******************************************************=",
">*******************************************************=",
">*******************************************************=",
">*******************************************************=",
">*******************************************************=",
">*******************************************************=",
">*******************************************************=",
">*******************************************************=",
">*******************************************************=",
">*******************************************************=",
">*******************************************************=",
">******************~+@00000000+0a0@bcd******************=",
">******************4(((((((((((((((((|******************=",
">******************e(((((((((((((((((:******************=",
">******************e(((((((((((((((((_******************=",
">******************}(((((((((((((((((f******************=",
">******************/(((((((((((((((((_******************=",
">******************<((((((((((((((((([******************=",
">******************<(((((((((((((((((_******************=",
">******************<(((((((((((((((((_******************=",
">******************<(((((((((((((((((_******************=",
">******************<(((((((((((((((((_******************=",
">******************<(((((((((((((((((_******************=",
">******************<(((((((((((((((((_******************=",
">******************/(((((((((((((((((_******************=",
">******************/(((((((((((((((((_******************=",
">******************e(((((((((((((((((f******************=",
">******************e(((((((((((((((((_******************=",
">******************e(((((((((((((((((g******************=",
">******************4(((((((((((((((((|******************=",
">******************h{i!7{!{6j{~~)]]!'k******************=",
">*******************************************************=",
">*******************************************************=",
">*******************************************************=",
">*******************************************************=",
">*******************************************************=",
">*******************************************************=",
">*******************************************************=",
">*******************************************************=",
">*******************************************************=",
">*******************************************************=",
">**********************************l********************=",
"m**********************************l********************;",
">*******************************************************n",
"&*******************************************************o",
">*******************************************************p",
"m*******************************************************;",
"m************ll************ll*l*************************=",
"qrb+#0++0$+$stsuc+000+a+@+@vswxb+0+++++++@@@@@@@@@@@@@$0y"};
