/* XPM */
static char * five_xpm[] = {
"57 130 64 1",
" 	c #717171",
".	c #424242",
"+	c #4A4A4A",
"@	c #4C4C4C",
"#	c #4B4B4B",
"$	c #4E4E4E",
"%	c #575757",
"&	c #585858",
"*	c #565656",
"=	c #4F4F4F",
"-	c #525252",
";	c #515151",
">	c #494949",
",	c #434343",
"'	c #8A8A8A",
")	c #1C1117",
"!	c #323232",
"~	c #FFFFFF",
"{	c #FCFCFC",
"]	c #5D5D5D",
"^	c #393939",
"/	c #5E5E5E",
"(	c #353535",
"_	c #5B5B5B",
":	c #363636",
"<	c #373737",
"[	c #383838",
"}	c #343434",
"|	c #595959",
"1	c #3C3C3C",
"2	c #FEFEFE",
"3	c #414141",
"4	c #F6F6F6",
"5	c #1A1A1A",
"6	c #464646",
"7	c #404040",
"8	c #3A3A3A",
"9	c #3E3E3E",
"0	c #2B2B2B",
"a	c #7A7A7A",
"b	c #F0F0F0",
"c	c #5A5A5A",
"d	c #535353",
"e	c #3B3B3B",
"f	c #505050",
"g	c #3D3D3D",
"h	c #545454",
"i	c #7D7D7D",
"j	c #292929",
"k	c #808080",
"l	c #4D4D4D",
"m	c #474747",
"n	c #242424",
"o	c #282828",
"p	c #232323",
"q	c #252525",
"r	c #262626",
"s	c #272727",
"t	c #626262",
"u	c #2A2A2A",
"v	c #333333",
"w	c #737373",
"x	c #444444",
"y	c #898989",
" .+@@@@@@@@#+###+@$%&*=#@-*%*;@+##+######@@@@@@@@###>+,')",
"!~~~~~~~~~~~~~~~~~~{{~~~~~~~~~~~~~~~~~~~~~~~~~~~~~~~~~~])",
"^~~~~~~~~~~~~~~~~~~~~~~~~~~~~~~~~~~~~~~~~~~~~~~~~~~~~~~/)",
"(~~~~~~~~~~~~~~~~~~~~~~~~~~~~~~~~~~~~~~~~~~~~~~~~~~~~~~_)",
"(~~~~~~~~~~~~~~~~~~~~~~~~~~~~~~~~~~~~~~~~~~~~~~~~~~~~~~_)",
"(~~~~~~~~~~~~~~~~~~~~~~~~~~~~~~~~~~~~~~~~~~~~~~~~~~~~~~_)",
":~~~~~~~~~~~~~~~~~~~~~~~~~~~~~~~~~~~~~~~~~~~~~~~~~~~~~~_)",
"<~~~~~~~~~~~~~~~~~~~~~~~~~~~~~~~~~~~~~~~~~~~~~~~~~~~~~~_)",
"[~~~~~~~~~~~~~~~~~~~~~~~~~~~~~~~~~~~~~~~~~~~~~~~~~~~~~~_)",
":~~~~~~~~~~~~~~~~~~~~~~~~~~~~~~~~~~~~~~~~~~~~~~~~~~~~~~_)",
"}~~~~~~~~~~~~~~~~~~~~~~~~~~~~~~~~~~~~~~~~~~~~~~~~~~~~~~_)",
":~~~~~~~~~~~~~~~~~~~~~~~~~~~~~~~~~~~~~~~~~~~~~~~~~~~~~~|)",
":~~~~~~~~~~~~~~~~~~~~~~~~~~~~~~~~~~~~~~~~~~~~~~~~~~~~~~_)",
":~~~~~~~~~~~~~~~~~~~~~~~~~~~~~~~~~~~~~~~~~~~~~~~~~~~~~~_)",
":~~~~~~~~~~~~~~~~~~~~~~~~~~~~~~~~~~~~~~~~~~~~~~~~~~~~~~%)",
"(~~~~~~~~~~~~~~~~~~~~~~~~~~~~~~~~~~~~~~~~~~~~~~~~~~~~~~|)",
"<~~~~~~~~~~~~~~~~~~~~~~~~~~~~~~~~~~~~~~~~~~~~~~~~~~~~~~|)",
"1~~~~~~~~~~~~~~~~~{2~~~~~~~~~~~~~~~~~~~~~~~~~~~~~~~~~~~_)",
"34~~~~~~~~~~~~~~~25678:^(<[<<<<<<<<<<<<<<<<<<<<<<<<[(90a)",
"7b~~~~~~~~~~~~~~~2c))))))))))))))))))))))))))))))))))))))",
",~~~~~~~~~~~~~~~~2|))))))))))))))))))))))))))))))))))))))",
".~~~~~~~~~~~~~~~~~d))))))))))))))))))))))))))))))))))))))",
"e~~~~~~~~~~~~~~~~~$))))))))))))))))))))))))))))))))))))))",
"<~~~~~~~~~~~~~~~~~=))))))))))))))))))))))))))))))))))))))",
":~~~~~~~~~~~~~~~~~=))))))))))))))))))))))))))))))))))))))",
"e~~~~~~~~~~~~~~~~~$))))))))))))))))))))))))))))))))))))))",
",~~~~~~~~~~~~~~~~~f))))))))))))))))))))))))))))))))))))))",
"3~~~~~~~~~~~~~~~~~f))))))))))))))))))))))))))))))))))))))",
".~~~~~~~~~~~~~~~~~f))))))))))))))))))))))))))))))))))))))",
",{~~~~~~~~~~~~~~~~f))))))))))))))))))))))))))))))))))))))",
".~~~~~~~~~~~~~~~~~f))))))))))))))))))))))))))))))))))))))",
"9~~~~~~~~~~~~~~~~~f))))))))))))))))))))))))))))))))))))))",
":~~~~~~~~~~~~~~~~~f))))))))))))))))))))))))))))))))))))))",
"(~~~~~~~~~~~~~~~~~f))))))))))))))))))))))))))))))))))))))",
"8~~~~~~~~~~~~~~~~~f))))))))))))))))))))))))))))))))))))))",
"3~~~~~~~~~~~~~~~~~f))))))))))))))))))))))))))))))))))))))",
".~~~~~~~~~~~~~~~~~f))))))))))))))))))))))))))))))))))))))",
"3~~~~~~~~~~~~~~~~~f))))))))))))))))))))))))))))))))))))))",
"g~~~~~~~~~~~~~~~~~f))))))))))))))))))))))))))))))))))))))",
"[~~~~~~~~~~~~~~~~~f))))))))))))))))))))))))))))))))))))))",
":~~~~~~~~~~~~~~~~~f))))))))))))))))))))))))))))))))))))))",
":~~~~~~~~~~~~~~~~~f))))))))))))))))))))))))))))))))))))))",
"<~~~~~~~~~~~~~~~~~f))))))))))))))))))))))))))))))))))))))",
"}~~~~~~~~~~~~~~~~~f))))))))))))))))))))))))))))))))))))))",
"(~~~~~~~~~~~~~~~~~f))))))))))))))))))))))))))))))))))))))",
"(~~~~~~~~~~~~~~~~~f))))))))))))))))))))))))))))))))))))))",
"(~~~~~~~~~~~~~~~~~f))))))))))))))))))))))))))))))))))))))",
"(~~~~~~~~~~~~~~~~~f))))))))))))))))))))))))))))))))))))))",
":~~~~~~~~~~~~~~~~~f))))))))))))))))))))))))))))))))))))))",
":~~~~~~~~~~~~~~~~~f))))))))))))))))))))))))))))))))))))))",
":~~~~~~~~~~~~~~~~~f))))))))))))))))))))))))))))))))))))))",
":~~~~~~~~~~~~~~~~~f))))))))))))))))))))))))))))))))))))))",
":~~~~~~~~~~~~~~~~~f))))))))))))))))))))))))))))))))))))))",
":~~~~~~~~~~~~~~~~~f))))))))))))))))))))))))))))))))))))))",
":~~~~~~~~~~~~~~~~~f))))))))))))))))))))))))))))))))))))))",
":~~~~~~~~~~~~~~~~~f))))))))))))))))))))))))))))))))))))))",
":~~~~~~~~~~~~~~~~~f))))))))))))))))))))))))))))))))))))))",
":~~~~~~~~~~~~~~~~~f))))))))))))))))))))))))))))))))))))))",
":~~~~~~~~~~~~~~~~~f))))))))))))))))))))))))))))))))))))))",
":~~~~~~~~~~~~~~~~~f))))))))))))))))))))))))))))))))))))))",
":~~~~~~~~~~~~~~~~~f))))))))))))))))))))))))))))))))))))))",
":~~~~~~~~~~~~~~~~~f))))))))))))))))))))))))))))))))))))))",
":~~~~~~~~~~~~~~~~~f))))))))))))))))))))))))))))))))))))))",
":~~~~~~~~~~~~~~~~~f))))))))))))))))))))))))))))))))))))))",
":~~~~~~~~~~~~~~~~~f))))))))))))))))))))))))))))))))))))))",
":~~~~~~~~~~~~~~~~~f))))))))))))))))))))))))))))))))))))))",
":~~~~~~~~~~~~~~~~~f))))))))))))))))))))))))))))))))))))))",
":~~~~~~~~~~~~~~~~~=))))))))))))))))))))))))))))))))))))))",
":~~~~~~~~~~~~~~~~~d))))))))))))))))))))))))))))))))))))))",
":~~~~~~~~~~~~~~~~~@))))))))))))))))))))))))))))))))))))))",
":~~~~~~~~~~~~~~~~~;))))))))))))))))))))))))))))))))))))))",
":~~~~~~~~~~~~~~~~~$))))))))))))))))))))))))))))))))))))))",
":~~~~~~~~~~~~~~~~~h))))))))))))))))))))))))))))))))))))))",
":~~~~~~~~~~~~~~~~~=))))))))))))))))))))))))))))))))))))))",
":~~~~~~~~~~~~~~~~~ie<^8^8^^^^^^^^^^^^^^^^^^^^^^^^^^8(1jk)",
":~~~~~~~~~~~~~~~~~~~~~~~~~~~~~~~~~~~~~~~~~~~~~~~~~~~~~~c)",
":~~~~~~~~~~~~~~~~~~~~~~~~~~~~~~~~~~~~~~~~~~~~~~~~~~~~~~_)",
":~~~~~~~~~~~~~~~~~~~~~~~~~~~~~~~~~~~~~~~~~~~~~~~~~~~~~~c)",
":~~~~~~~~~~~~~~~~~~~~~~~~~~~~~~~~~~~~~~~~~~~~~~~~~~~~~~c)",
":~~~~~~~~~~~~~~~~~~~~~~~~~~~~~~~~~~~~~~~~~~~~~~~~~~~~~~c)",
":~~~~~~~~~~~~~~~~~~~~~~~~~~~~~~~~~~~~~~~~~~~~~~~~~~~~~~c)",
":~~~~~~~~~~~~~~~~~~~~~~~~~~~~~~~~~~~~~~~~~~~~~~~~~~~~~~c)",
":~~~~~~~~~~~~~~~~~~~~~~~~~~~~~~~~~~~~~~~~~~~~~~~~~~~~~~c)",
":~~~~~~~~~~~~~~~~~~~~~~~~~~~~~~~~~~~~~~~~~~~~~~~~~~~~~~_)",
":~~~~~~~~~~~~~~~~~~~~~~~~~~~~~~~~~~~~~~~~~~~~~~~~~~~~~~_)",
":~~~~~~~~~~~~~~~~~~~~~~~~~~~~~~~~~~~~~~~~~~~~~~~~~~~~~~_)",
":~~~~~~~~~~~~~~~~~~~~~~~~~~~~~~~~~~~~~~~~~~~~~~~~~~~~~~_)",
":~~~~~~~~~~~~~~~~~~~~~~~~~~~~~~~~~~~~~~~~~~~~~~~~~~~~~~_)",
":~~~~~~~~~~~~~~~~~~~~~~~~~~~~~~~~~~~~~~~~~~~~~~~~~~~~~~_)",
":~~~~~~~~~~~~~~~~~~~~~~~~~~~~~~~~~~~~~~~~~~~~~~~~~~~~~~_)",
"<~~~~~~~~~~~~~~~~~~~~~~~~~~~~~~~~~~~~~~~~~~~~~~~~~~~~~~_)",
"!~~~~~~~~~~~~~~~~~~~~~~~~~~~~~~~~~~~~~~~~~~~~~~~~~~~~~~_)",
" 7l>>>>>>>>>>>>>>>>>>>>>>>>>>++>>>>6m~~~~~~~~~~~~~~~~~~_)",
")))))))))))))))))))))))))))))))))))))n~~~~~~~~~~~~~~~~~_)",
")))))))))))))))))))))))))))))))))))))o~~~~~~~~~~~~~~~~~_)",
")))))))))))))))))))))))))))))))))))))p~~~~~~~~~~~~~~~~~_)",
")))))))))))))))))))))))))))))))))))))n~~~~~~~~~~~~~~~~~_)",
")))))))))))))))))))))))))))))))))))))q~~~~~~~~~~~~~~~~~_)",
")))))))))))))))))))))))))))))))))))))n~~~~~~~~~~~~~~~~~_)",
")))))))))))))))))))))))))))))))))))))r~~~~~~~~~~~~~~~~~_)",
")))))))))))))))))))))))))))))))))))))r~~~~~~~~~~~~~~~~~_)",
")))))))))))))))))))))))))))))))))))))r~~~~~~~~~~~~~~~~~_)",
")))))))))))))))))))))))))))))))))))))r~~~~~~~~~~~~~~~~~_)",
")))))))))))))))))))))))))))))))))))))r~~~~~~~~~~~~~~~~~_)",
")))))))))))))))))))))))))))))))))))))r~~~~~~~~~~~~~~~~~_)",
")))))))))))))))))))))))))))))))))))))r~~~~~~~~~~~~~~~~~_)",
")))))))))))))))))))))))))))))))))))))r~~~~~~~~~~~~~~~~~_)",
")))))))))))))))))))))))))))))))))))))q~~~~~~~~~~~~~~~~~_)",
")))))))))))))))))))))))))))))))))))))o~~~~~~~~~~~~~~~~~_)",
")))))))))))))))))))))))))))))))))))))n~~~~~~~~~~~~~~~~~_)",
")))))))))))))))))))))))))))))))))))))s~~~~~~~~~~~~~~~~~_)",
"tu[[[[[[[[[[[[[[[[[[[[[[[[[<<<<<<<<[(~~~~~~~~~~~~~~~~~~_)",
"[~~~~~~~~~~~~~~~~~~~~~~~~~~~~~~~~~~~~~~~~~~~~~~~~~~~~~~_)",
":~~~~~~~~~~~~~~~~~~~~~~~~~~~~~~~~~~~~~~~~~~~~~~~~~~~~~~_)",
"v~~~~~~~~~~~~~~~~~~~~~~~~~~~~~~~~~~~~~~~~~~~~~~~~~~~~~~_)",
":~~~~~~~~~~~~~~~~~~~~~~~~~~~~~~~~~~~~~~~~~~~~~~~~~~~~~~_)",
":~~~~~~~~~~~~~~~~~~~~~~~~~~~~~~~~~~~~~~~~~~~~~~~~~~~~~~_)",
":~~~~~~~~~~~~~~~~~~~~~~~~~~~~~~~~~~~~~~~~~~~~~~~~~~~~~~_)",
":~~~~~~~~~~~~~~~~~~~~~~~~~~~~~~~~~~~~~~~~~~~~~~~~~~~~~~_)",
":~~~~~~~~~~~~~~~~~~~~~~~~~~~~~~~~~~~~~~~~~~~~~~~~~~~~~~_)",
":~~~~~~~~~~~~~~~~~~~~~~~~~~~~~~~~~~~~~~~~~~~~~~~~~~~~~~_)",
":~~~~~~~~~~~~~~~~~~~~~~~~~~~~~~~~~~~~~~~~~~~~~~~~~~~~~~_)",
":~~~~~~~~~~~~~~~~~~~~~~~~~~~~~~~~~~~~~~~~~~~~~~~~~~~~~~_)",
"<~~~~~~~~~~~~~~~~~~~~~~~~~~~~~~~~~~~~~~~~~~~~~~~~~~~~~~*)",
"v~~~~~~~~~~~~~~~~~~~~~~~~~~~~~~~~~~~~~~~~~~~~~~~~~~~~~~_)",
"}~~~~~~~~~~~~~~~~~~~~~~~~~~~~~~~~~~~~~~~~~~~~~~~~~~~~~~_)",
"^~~~~~~~~~~~~~~~~~~~~~~~~~~~~~~~~~~~~~~~~~~~~~~~~~~~~~~_)",
":~~~~~~~~~~~~~~~~~~~~~~~~~~~~~~~~~~~~~~~~~~~~~~~~~~~~~~_)",
"v~~~~~~~~~~~~~~~~~~~~~~~~~~~~~~~~~~~~~~~~~~~~~~~~~~~~~~&)",
"wxl################################################$6#xy)"};
