/* XPM */
static char * seven_xpm[] = {
"57 130 93 2",
"  	c #E6E6E6",
". 	c #525252",
"+ 	c #454545",
"@ 	c #4B4B4B",
"# 	c #4C4C4C",
"$ 	c #494949",
"% 	c #4A4A4A",
"& 	c #565656",
"* 	c #575757",
"= 	c #555555",
"- 	c #474747",
"; 	c #484848",
"> 	c #464646",
", 	c #BEBEBE",
"' 	c #E1E1E1",
") 	c #FFFFFF",
"! 	c #FEFEFE",
"~ 	c #9F9F9F",
"{ 	c #E2E2E2",
"] 	c #A9A9A9",
"^ 	c #AAAAAA",
"/ 	c #A8A8A8",
"( 	c #A5A5A5",
"_ 	c #A3A3A3",
": 	c #A4A4A4",
"< 	c #FDFDFD",
"[ 	c #232323",
"} 	c #363636",
"| 	c #3C3C3C",
"1 	c #424242",
"2 	c #414141",
"3 	c #434343",
"4 	c #383838",
"5 	c #393939",
"6 	c #353535",
"7 	c #404040",
"8 	c #444444",
"9 	c #F9F9F9",
"0 	c #A6A6A6",
"a 	c #8F8F8F",
"b 	c #1C1117",
"c 	c #D7D7D7",
"d 	c #929292",
"e 	c #D0D0D0",
"f 	c #909090",
"g 	c #CCCCCC",
"h 	c #8E8E8E",
"i 	c #CECECE",
"j 	c #CFCFCF",
"k 	c #9B9B9B",
"l 	c #999999",
"m 	c #E0E0E0",
"n 	c #959595",
"o 	c #DFDFDF",
"p 	c #919191",
"q 	c #969696",
"r 	c #D1D1D1",
"s 	c #9A9A9A",
"t 	c #DCDCDC",
"u 	c #979797",
"v 	c #E3E3E3",
"w 	c #E4E4E4",
"x 	c #DEDEDE",
"y 	c #939393",
"z 	c #FCFCFC",
"A 	c #F6F6F6",
"B 	c #515151",
"C 	c #3D3D3D",
"D 	c #3F3F3F",
"E 	c #AEAEAE",
"F 	c #D2D2D2",
"G 	c #D3D3D3",
"H 	c #878787",
"I 	c #2B2B2B",
"J 	c #3B3B3B",
"K 	c #3A3A3A",
"L 	c #373737",
"M 	c #2F2F2F",
"N 	c #636363",
"O 	c #646464",
"P 	c #A2A2A2",
"Q 	c #BFBFBF",
"R 	c #242424",
"S 	c #282828",
"T 	c #252525",
"U 	c #262626",
"V 	c #626262",
"W 	c #292929",
"X 	c #616161",
"Y 	c #272727",
"Z 	c #656565",
"` 	c #2C2C2C",
" .	c #4E4E4E",
"  . + @ # @ # $ # # # # # # # # # # # # # # # # # # # # # # # # @ @ @ @ @ @ @ @ % # & * & = # - $ ; > ; ; $ % + , ",
"' ) ) ) ) ) ) ) ) ) ) ) ) ) ) ) ) ) ) ) ) ) ) ) ) ) ) ) ) ) ) ) ) ) ) ) ) ) ) ) ) ) ) ! ! ! ) ) ) ) ) ) ) ) ) ) ~ ",
"{ ) ) ) ) ) ) ) ) ) ) ) ) ) ) ) ) ) ) ) ) ) ) ) ) ) ) ) ) ) ) ) ) ) ) ) ) ) ) ) ) ) ) ) ) ) ) ) ) ) ) ) ) ) ) ) ] ",
"' ) ) ) ) ) ) ) ) ) ) ) ) ) ) ) ) ) ) ) ) ) ) ) ) ) ) ) ) ) ) ) ) ) ) ) ) ) ) ) ) ) ) ) ) ) ) ) ) ) ) ) ) ) ) ) ^ ",
"' ) ) ) ) ) ) ) ) ) ) ) ) ) ) ) ) ) ) ) ) ) ) ) ) ) ) ) ) ) ) ) ) ) ) ) ) ) ) ) ) ) ) ) ) ) ) ) ) ) ) ) ) ) ) ) / ",
"' ) ) ) ) ) ) ) ) ) ) ) ) ) ) ) ) ) ) ) ) ) ) ) ) ) ) ) ) ) ) ) ) ) ) ) ) ) ) ) ) ) ) ) ) ) ) ) ) ) ) ) ) ) ) ) ( ",
"' ) ) ) ) ) ) ) ) ) ) ) ) ) ) ) ) ) ) ) ) ) ) ) ) ) ) ) ) ) ) ) ) ) ) ) ) ) ) ) ) ) ) ) ) ) ) ) ) ) ) ) ) ) ) ) _ ",
"' ) ) ) ) ) ) ) ) ) ) ) ) ) ) ) ) ) ) ) ) ) ) ) ) ) ) ) ) ) ) ) ) ) ) ) ) ) ) ) ) ) ) ) ) ) ) ) ) ) ) ) ) ) ) ) : ",
"' ) ) ) ) ) ) ) ) ) ) ) ) ) ) ) ) ) ) ) ) ) ) ) ) ) ) ) ) ) ) ) ) ) ) ) ) ) ) ) ) ) ) ) ) ) ) ) ) ) ) ) ) ) ) ) : ",
"' ) ) ) ) ) ) ) ) ) ) ) ) ) ) ) ) ) ) ) ) ) ) ) ) ) ) ) ) ) ) ) ) ) ) ) ) ) ) ) ) ) ) ) ) ) ) ) ) ) ) ) ) ) ) ) : ",
"' ) ) ) ) ) ) ) ) ) ) ) ) ) ) ) ) ) ) ) ) ) ) ) ) ) ) ) ) ) ) ) ) ) ) ) ) ) ) ) ) ) ) ) ) ) ) ) ) ) ) ) ) ) ) ) : ",
"' ) ) ) ) ) ) ) ) ) ) ) ) ) ) ) ) ) ) ) ) ) ) ) ) ) ) ) ) ) ) ) ) ) ) ) ) ) ) ) ) ) ) ) ) ) ) ) ) ) ) ) ) ) ) ) ( ",
"' ) ) ) ) ) ) ) ) ) ) ) ) ) ) ) ) ) ) ) ) ) ) ) ) ) ) ) ) ) ) ) ) ) ) ) ) ) ) ) ) ) ) ) ) ) ) ) ) ) ) ) ) ) ) ) ( ",
"' ) ) ) ) ) ) ) ) ) ) ) ) ) ) ) ) ) ) ) ) ) ) ) ) ) ) ) ) ) ) ) ) ) ) ) ) ) ) ) ) ) ) ) ) ) ) ) ) ) ) ) ) ) ) ) ( ",
"' ) ) ) ) ) ) ) ) ) ) ) ) ) ) ) ) ) ) ) ) ) ) ) ) ) ) ) ) ) ) ) ) ) ) ) ) ) ) ) ) ) ) ) ) ) ) ) ) ) ) ) ) ) ) ) ( ",
"' ) ) ) ) ) ) ) ) ) ) ) ) ) ) ) ) ) ) ) ) ) ) ) ) ) ) ) ) ) ) ) ) ) ) ) ) ) ) ) ) ) ) ) ) ) ) ) ) ) ) ) ) ) ) ) ( ",
"' ) ) ) ) ) ) ) ) ) ) ) ) ) ) ) ) ) ) ) ) ) ) ) ) ) ) ) ) ) ) ) ) ) ) ) ) ) ) ) ) ) ) ) ) ) ) ) ) ) ) ) ) ) ) ) ( ",
"' ) ) ) ) ) ) ) ) ) ) ) ) ) ) ) ) ) ) ) ) ) < ) ) ) ! ) ) ) ) ) ) ) ! ) ! ! ) ) ) ) ) ) ) ) ) ) ) ) ) ) ) ) ) ) ( ",
"' ) ) ) ) ) ) ) ) ) ) ) ) ) ) ) ) ) ) [ } | + 1 + 2 + 3 4 } 5 6 6 | ; 7 8 4 9 ) ) ) ) ) ) ) ) ) ) ) ) ) ) ) ) ) 0 ",
"' ) ) ) ) ) ) ) ) ) ) ) ) ) ) ) ) ) ) a b b b b b b b b b b b b b b b b b c ) ) ) ) ) ) ) ) ) ) ) ) ) ) ) ) ) ) 0 ",
"' ) ) ) ) ) ) ) ) ) ) ) ) ) ) ) ) ) ) d b b b b b b b b b b b b b b b b b e ) ) ) ) ) ) ) ) ) ) ) ) ) ) ) ) ) ) 0 ",
"' ) ) ) ) ) ) ) ) ) ) ) ) ) ) ) ) ) ) f b b b b b b b b b b b b b b b b b g ) ) ) ) ) ) ) ) ) ) ) ) ) ) ) ) ) ) 0 ",
"' ) ) ) ) ) ) ) ) ) ) ) ) ) ) ) ) ) ) h b b b b b b b b b b b b b b b b b i ) ) ) ) ) ) ) ) ) ) ) ) ) ) ) ) ) ) 0 ",
"' ) ) ) ) ) ) ) ) ) ) ) ) ) ) ) ) ) ) a b b b b b b b b b b b b b b b b b j ) ) ) ) ) ) ) ) ) ) ) ) ) ) ) ) ) ) 0 ",
"' ) ) ) ) ) ) ) ) ) ) ) ) ) ) ) ) ) ) h b b b b b b b b b b b b b b b b b j ) ) ) ) ) ) ) ) ) ) ) ) ) ) ) ) ) ) 0 ",
"' ) ) ) ) ) ) ) ) ) ) ) ) ) ) ) ) ) ) d b b b b b b b b b b b b b b b b b j ) ) ) ) ) ) ) ) ) ) ) ) ) ) ) ) ) ) 0 ",
"' ) ) ) ) ) ) ) ) ) ) ) ) ) ) ) ) ) ) k b b b b b b b b b b b b b b b b b i ) ) ) ) ) ) ) ) ) ) ) ) ) ) ) ) ) ) 0 ",
"' ) ) ) ) ) ) ) ) ) ) ) ) ) ) ) ) ) ) l b b b b b b b b b b b b b b b b b j ) ) ) ) ) ) ) ) ) ) ) ) ) ) ) ) ) ) 0 ",
"' ) ) ) ) ) ) ) ) ) ) ) ) ) ) ) ) ) ) l b b b b b b b b b b b b b b b b b j ) ) ) ) ) ) ) ) ) ) ) ) ) ) ) ) ) ) 0 ",
"m ) ) ) ) ) ) ) ) ) ) ) ) ) ) ) ) ) ) l b b b b b b b b b b b b b b b b b j ) ) ) ) ) ) ) ) ) ) ) ) ) ) ) ) ) ) 0 ",
"m ) ) ) ) ) ) ) ) ) ) ) ) ) ) ) ) ) ) n b b b b b b b b b b b b b b b b b e ) ) ) ) ) ) ) ) ) ) ) ) ) ) ) ) ) ) 0 ",
"m ) ) ) ) ) ) ) ) ) ) ) ) ) ) ) ) ) ) h b b b b b b b b b b b b b b b b b e ) ) ) ) ) ) ) ) ) ) ) ) ) ) ) ) ) ) 0 ",
"m ) ) ) ) ) ) ) ) ) ) ) ) ) ) ) ) ) ) h b b b b b b b b b b b b b b b b b e ) ) ) ) ) ) ) ) ) ) ) ) ) ) ) ) ) ) 0 ",
"o ) ) ) ) ) ) ) ) ) ) ) ) ) ) ) ) ) ) p b b b b b b b b b b b b b b b b b e ) ) ) ) ) ) ) ) ) ) ) ) ) ) ) ) ) ) 0 ",
"o ) ) ) ) ) ) ) ) ) ) ) ) ) ) ) ) ) ) a b b b b b b b b b b b b b b b b b e ) ) ) ) ) ) ) ) ) ) ) ) ) ) ) ) ) ) 0 ",
"o ) ) ) ) ) ) ) ) ) ) ) ) ) ) ) ) ) ) q b b b b b b b b b b b b b b b b b r ) ) ) ) ) ) ) ) ) ) ) ) ) ) ) ) ) ) 0 ",
"o ) ) ) ) ) ) ) ) ) ) ) ) ) ) ) ) ) ) s b b b b b b b b b b b b b b b b b r ) ) ) ) ) ) ) ) ) ) ) ) ) ) ) ) ) ) 0 ",
"t ) ) ) ) ) ) ) ) ) ) ) ) ) ) ) ) ) ) u b b b b b b b b b b b b b b b b b r ) ) ) ) ) ) ) ) ) ) ) ) ) ) ) ) ) ) 0 ",
"o ! ) ) ) ) ) ) ) ) ) ) ) ) ) ) ) ) ) d b b b b b b b b b b b b b b b b b r ) ) ) ) ) ) ) ) ) ) ) ) ) ) ) ) ) ) 0 ",
"v ! ) ) ) ) ) ) ) ) ) ) ) ) ) ) ) ) ) d b b b b b b b b b b b b b b b b b r ) ) ) ) ) ) ) ) ) ) ) ) ) ) ) ) ) ) 0 ",
"{ ! ) ) ) ) ) ) ) ) ) ) ) ) ) ) ) ) ) d b b b b b b b b b b b b b b b b b r ) ) ) ) ) ) ) ) ) ) ) ) ) ) ) ) ) ) 0 ",
"{ ! ) ) ) ) ) ) ) ) ) ) ) ) ) ) ) ) ) d b b b b b b b b b b b b b b b b b r ) ) ) ) ) ) ) ) ) ) ) ) ) ) ) ) ) ) 0 ",
"w ! ) ) ) ) ) ) ) ) ) ) ) ) ) ) ) ) ) d b b b b b b b b b b b b b b b b b r ) ) ) ) ) ) ) ) ) ) ) ) ) ) ) ) ) ) 0 ",
"v ! ) ) ) ) ) ) ) ) ) ) ) ) ) ) ) ) ) d b b b b b b b b b b b b b b b b b r ) ) ) ) ) ) ) ) ) ) ) ) ) ) ) ) ) ) 0 ",
"v ! ) ) ) ) ) ) ) ) ) ) ) ) ) ) ) ) ) d b b b b b b b b b b b b b b b b b r ) ) ) ) ) ) ) ) ) ) ) ) ) ) ) ) ) ) 0 ",
"v ! ) ) ) ) ) ) ) ) ) ) ) ) ) ) ) ) ) d b b b b b b b b b b b b b b b b b r ) ) ) ) ) ) ) ) ) ) ) ) ) ) ) ) ) ) 0 ",
"w ! ) ) ) ) ) ) ) ) ) ) ) ) ) ) ) ) ) d b b b b b b b b b b b b b b b b b r ) ) ) ) ) ) ) ) ) ) ) ) ) ) ) ) ) ) 0 ",
"v ! ) ) ) ) ) ) ) ) ) ) ) ) ) ) ) ) ) d b b b b b b b b b b b b b b b b b r ) ) ) ) ) ) ) ) ) ) ) ) ) ) ) ) ) ) 0 ",
"' ! ) ) ) ) ) ) ) ) ) ) ) ) ) ) ) ) ) d b b b b b b b b b b b b b b b b b r ) ) ) ) ) ) ) ) ) ) ) ) ) ) ) ) ) ) 0 ",
"x ! ) ) ) ) ) ) ) ) ) ) ) ) ) ) ) ) ) d b b b b b b b b b b b b b b b b b r ) ) ) ) ) ) ) ) ) ) ) ) ) ) ) ) ) ) 0 ",
"t ) ) ) ) ) ) ) ) ) ) ) ) ) ) ) ) ) ) y b b b b b b b b b b b b b b b b b r ) ) ) ) ) ) ) ) ) ) ) ) ) ) ) ) ) ) 0 ",
"' ) ) ) ) ) ) ) ) ) ) ) ) ) ) ) ) ) ) d b b b b b b b b b b b b b b b b b r ) ) ) ) ) ) ) ) ) ) ) ) ) ) ) ) ) ) 0 ",
"w ) ) ) ) ) ) ) ) ) ) ) ) ) ) ) ) ) ) f b b b b b b b b b b b b b b b b b r ) ) ) ) ) ) ) ) ) ) ) ) ) ) ) ) ) ) 0 ",
"m z ) ) ) ) ) ) ) ) ) ) ) ) ) ) ) ) ) u b b b b b b b b b b b b b b b b b r ) ) ) ) ) ) ) ) ) ) ) ) ) ) ) ) ) ) 0 ",
"v A ) ) ) ) ) ) ) ) ) ) ) ) ) ) ) ) ) d b b b b b b b b b b b b b b b b b r ) ) ) ) ) ) ) ) ) ) ) ) ) ) ) ) ) ) 0 ",
"  B C 2 2 7 D D D 7 7 7 7 7 2 2 2 D 6 E b b b b b b b b b b b b b b b b b r ) ) ) ) ) ) ) ) ) ) ) ) ) ) ) ) ) ) 0 ",
"b b b b b b b b b b b b b b b b b b b b b b b b b b b b b b b b b b b b b r ) ) ) ) ) ) ) ) ) ) ) ) ) ) ) ) ) ) 0 ",
"b b b b b b b b b b b b b b b b b b b b b b b b b b b b b b b b b b b b b r ) ) ) ) ) ) ) ) ) ) ) ) ) ) ) ) ) ) 0 ",
"b b b b b b b b b b b b b b b b b b b b b b b b b b b b b b b b b b b b b r ) ) ) ) ) ) ) ) ) ) ) ) ) ) ) ) ) ) 0 ",
"b b b b b b b b b b b b b b b b b b b b b b b b b b b b b b b b b b b b b r ) ) ) ) ) ) ) ) ) ) ) ) ) ) ) ) ) ) 0 ",
"b b b b b b b b b b b b b b b b b b b b b b b b b b b b b b b b b b b b b r ) ) ) ) ) ) ) ) ) ) ) ) ) ) ) ) ) ) 0 ",
"b b b b b b b b b b b b b b b b b b b b b b b b b b b b b b b b b b b b b r ) ) ) ) ) ) ) ) ) ) ) ) ) ) ) ) ) ) 0 ",
"b b b b b b b b b b b b b b b b b b b b b b b b b b b b b b b b b b b b b r ) ) ) ) ) ) ) ) ) ) ) ) ) ) ) ) ) ) 0 ",
"b b b b b b b b b b b b b b b b b b b b b b b b b b b b b b b b b b b b b r ) ) ) ) ) ) ) ) ) ) ) ) ) ) ) ) ) ) 0 ",
"b b b b b b b b b b b b b b b b b b b b b b b b b b b b b b b b b b b b b r ) ) ) ) ) ) ) ) ) ) ) ) ) ) ) ) ) ) 0 ",
"b b b b b b b b b b b b b b b b b b b b b b b b b b b b b b b b b b b b b r ) ) ) ) ) ) ) ) ) ) ) ) ) ) ) ) ) ) 0 ",
"b b b b b b b b b b b b b b b b b b b b b b b b b b b b b b b b b b b b b r ) ) ) ) ) ) ) ) ) ) ) ) ) ) ) ) ) ) 0 ",
"b b b b b b b b b b b b b b b b b b b b b b b b b b b b b b b b b b b b b F ) ) ) ) ) ) ) ) ) ) ) ) ) ) ) ) ) ) 0 ",
"b b b b b b b b b b b b b b b b b b b b b b b b b b b b b b b b b b b b b G ) ) ) ) ) ) ) ) ) ) ) ) ) ) ) ) ) ) 0 ",
"b b b b b b b b b b b b b b b b b b b b b b b b b b b b b b b b b b b b b e ) ) ) ) ) ) ) ) ) ) ) ) ) ) ) ) ) ) 0 ",
"b b b b b b b b b b b b b b b b b b b b b b b b b b b b b b b b b b b b b c ) ) ) ) ) ) ) ) ) ) ) ) ) ) ) ) ) ) 0 ",
"b b b b b b b b b b b b b b b b b b b b b b b b b b b b b b b b b b b b b e ) ) ) ) ) ) ) ) ) ) ) ) ) ) ) ) ) ) 0 ",
"b b b b b b b b b b b b b b b b b b b b b b b b b b b b b b b b b b b b b r ) ) ) ) ) ) ) ) ) ) ) ) ) ) ) ) ) ) 0 ",
"b b b b b b b b b b b b b b b b b b b b b b b b b b b b b b b b b b b b b G ) ) ) ) ) ) ) ) ) ) ) ) ) ) ) ) ) ) 0 ",
"b b b b b b b b b b b b b b b b b b b H I J 4 4 5 5 5 5 5 5 5 5 J 4 K L K M ) ) ) ) ) ) ) ) ) ) ) ) ) ) ) ) ) ) 0 ",
"b b b b b b b b b b b b b b b b b b b N ) ) ) ) ) ) ) ) ) ) ) ) ) ) ) ) ) ) ) ) ) ) ) ) ) ) ) ) ) ) ) ) ) ) ) ) 0 ",
"b b b b b b b b b b b b b b b b b b b O ) ) ) ) ) ) ) ) ) ) ) ) ) ) ) ) ) ) ) ) ) ) ) ) ) ) ) ) ) ) ) ) ) ) ) ) 0 ",
"b b b b b b b b b b b b b b b b b b b O ) ) ) ) ) ) ) ) ) ) ) ) ) ) ) ) ) ) ) ) ) ) ) ) ) ) ) ) ) ) ) ) ) ) ) ) 0 ",
"b b b b b b b b b b b b b b b b b b b N ) ) ) ) ) ) ) ) ) ) ) ) ) ) ) ) ) ) ) ) ) ) ) ) ) ) ) ) ) ) ) ) ) ) ) ) 0 ",
"b b b b b b b b b b b b b b b b b b b O ) ) ) ) ) ) ) ) ) ) ) ) ) ) ) ) ) ) ) ) ) ) ) ) ) ) ) ) ) ) ) ) ) ) ) ) 0 ",
"b b b b b b b b b b b b b b b b b b b O ) ) ) ) ) ) ) ) ) ) ) ) ) ) ) ) ) ) ) ) ) ) ) ) ) ) ) ) ) ) ) ) ) ) ) ) 0 ",
"b b b b b b b b b b b b b b b b b b b N ) ) ) ) ) ) ) ) ) ) ) ) ) ) ) ) ) ) ) ) ) ) ) ) ) ) ) ) ) ) ) ) ) ) ) ) 0 ",
"b b b b b b b b b b b b b b b b b b b O ) ) ) ) ) ) ) ) ) ) ) ) ) ) ) ) ) ) ) ) ) ) ) ) ) ) ) ) ) ) ) ) ) ) ) ) 0 ",
"b b b b b b b b b b b b b b b b b b b N ) ) ) ) ) ) ) ) ) ) ) ) ) ) ) ) ) ) ) ) ) ) ) ) ) ) ) ) ) ) ) ) ) ) ) ) 0 ",
"b b b b b b b b b b b b b b b b b b b N ) ) ) ) ) ) ) ) ) ) ) ) ) ) ) ) ) ) ) ) ) ) ) ) ) ) ) ) ) ) ) ) ) ) ) ) 0 ",
"b b b b b b b b b b b b b b b b b b b N ) ) ) ) ) ) ) ) ) ) ) ) ) ) ) ) ) ) ) ) ) ) ) ) ) ) ) ) ) ) ) ) ) ) ) ) 0 ",
"b b b b b b b b b b b b b b b b b b b N ) ) ) ) ) ) ) ) ) ) ) ) ) ) ) ) ) ) ) ) ) ) ) ) ) ) ) ) ) ) ) ) ) ) ) ) 0 ",
"b b b b b b b b b b b b b b b b b b b N ) ) ) ) ) ) ) ) ) ) ) ) ) ) ) ) ) ) ) ) ) ) ) ) ) ) ) ) ) ) ) ) ) ) ) ) 0 ",
"b b b b b b b b b b b b b b b b b b b N ) ) ) ) ) ) ) ) ) ) ) ) ) ) ) ) ) ) ) ) ) ) ) ) ) ) ) ) ) ) ) ) ) ) ) ) 0 ",
"b b b b b b b b b b b b b b b b b b b N ) ) ) ) ) ) ) ) ) ) ) ) ) ) ) ) ) ) ) ) ) ) ) ) ) ) ) ) ) ) ) ) ) ) ) ) 0 ",
"b b b b b b b b b b b b b b b b b b b N ) ) ) ) ) ) ) ) ) ) ) ) ) ) ) ) ) ) ) ) ) ) ) ) ) ) ) ) ) ) ) ) ) ) ) ) 0 ",
"b b b b b b b b b b b b b b b b b b b N ) ) ) ) ) ) ) ) ) ) ) ) ) ) ) ) ) ) ) ) ) ) ) ) ) ) ) ) ) ) ) ) ) ) ) ) P ",
"b b b b b b b b b b b b b b b b b b b N ) ) ) ) ) ) ) ) ) ) ) ) ) ) ) ) ) ) - > $ $ $ $ % % $ $ $ $ $ ; - ; ; 8 Q ",
"b b b b b b b b b b b b b b b b b b b N ) ) ) ) ) ) ) ) ) ) ) ) ) ) ) ) ) R b b b b b b b b b b b b b b b b b b b ",
"b b b b b b b b b b b b b b b b b b b N ) ) ) ) ) ) ) ) ) ) ) ) ) ) ) ) ) S b b b b b b b b b b b b b b b b b b b ",
"b b b b b b b b b b b b b b b b b b b N ) ) ) ) ) ) ) ) ) ) ) ) ) ) ) ) ) [ b b b b b b b b b b b b b b b b b b b ",
"b b b b b b b b b b b b b b b b b b b N ) ) ) ) ) ) ) ) ) ) ) ) ) ) ) ) ) R b b b b b b b b b b b b b b b b b b b ",
"b b b b b b b b b b b b b b b b b b b N ) ) ) ) ) ) ) ) ) ) ) ) ) ) ) ) ) T b b b b b b b b b b b b b b b b b b b ",
"b b b b b b b b b b b b b b b b b b b N ) ) ) ) ) ) ) ) ) ) ) ) ) ) ) ) ) R b b b b b b b b b b b b b b b b b b b ",
"b b b b b b b b b b b b b b b b b b b N ) ) ) ) ) ) ) ) ) ) ) ) ) ) ) ) ) U b b b b b b b b b b b b b b b b b b b ",
"b b b b b b b b b b b b b b b b b b b N ) ) ) ) ) ) ) ) ) ) ) ) ) ) ) ) ) U b b b b b b b b b b b b b b b b b b b ",
"b b b b b b b b b b b b b b b b b b b N ) ) ) ) ) ) ) ) ) ) ) ) ) ) ) ) ) U b b b b b b b b b b b b b b b b b b b ",
"b b b b b b b b b b b b b b b b b b b N ) ) ) ) ) ) ) ) ) ) ) ) ) ) ) ) ) U b b b b b b b b b b b b b b b b b b b ",
"b b b b b b b b b b b b b b b b b b b N ) ) ) ) ) ) ) ) ) ) ) ) ) ) ) ) ) U b b b b b b b b b b b b b b b b b b b ",
"b b b b b b b b b b b b b b b b b b b N ) ) ) ) ) ) ) ) ) ) ) ) ) ) ) ) ) U b b b b b b b b b b b b b b b b b b b ",
"b b b b b b b b b b b b b b b b b b b N ) ) ) ) ) ) ) ) ) ) ) ) ) ) ) ) ) U b b b b b b b b b b b b b b b b b b b ",
"b b b b b b b b b b b b b b b b b b b N ) ) ) ) ) ) ) ) ) ) ) ) ) ) ) ) ) U b b b b b b b b b b b b b b b b b b b ",
"b b b b b b b b b b b b b b b b b b b N ) ) ) ) ) ) ) ) ) ) ) ) ) ) ) ) ) U b b b b b b b b b b b b b b b b b b b ",
"b b b b b b b b b b b b b b b b b b b N ) ) ) ) ) ) ) ) ) ) ) ) ) ) ) ) ) U b b b b b b b b b b b b b b b b b b b ",
"b b b b b b b b b b b b b b b b b b b N ) ) ) ) ) ) ) ) ) ) ) ) ) ) ) ) ) U b b b b b b b b b b b b b b b b b b b ",
"b b b b b b b b b b b b b b b b b b b N ) ) ) ) ) ) ) ) ) ) ) ) ) ) ) ) ) U b b b b b b b b b b b b b b b b b b b ",
"b b b b b b b b b b b b b b b b b b b N ) ) ) ) ) ) ) ) ) ) ) ) ) ) ) ) ) U b b b b b b b b b b b b b b b b b b b ",
"b b b b b b b b b b b b b b b b b b b N ) ) ) ) ) ) ) ) ) ) ) ) ) ) ) ) ) U b b b b b b b b b b b b b b b b b b b ",
"b b b b b b b b b b b b b b b b b b b N ) ) ) ) ) ) ) ) ) ) ) ) ) ) ) ) ) U b b b b b b b b b b b b b b b b b b b ",
"b b b b b b b b b b b b b b b b b b b N ) ) ) ) ) ) ) ) ) ) ) ) ) ) ) ) ) U b b b b b b b b b b b b b b b b b b b ",
"b b b b b b b b b b b b b b b b b b b N ) ) ) ) ) ) ) ) ) ) ) ) ) ) ) ) ) U b b b b b b b b b b b b b b b b b b b ",
"b b b b b b b b b b b b b b b b b b b N ) ) ) ) ) ) ) ) ) ) ) ) ) ) ) ) ) U b b b b b b b b b b b b b b b b b b b ",
"b b b b b b b b b b b b b b b b b b b N ) ) ) ) ) ) ) ) ) ) ) ) ) ) ) ) ) U b b b b b b b b b b b b b b b b b b b ",
"b b b b b b b b b b b b b b b b b b b N ) ) ) ) ) ) ) ) ) ) ) ) ) ) ) ) ) U b b b b b b b b b b b b b b b b b b b ",
"b b b b b b b b b b b b b b b b b b b N ) ) ) ) ) ) ) ) ) ) ) ) ) ) ) ) ) U b b b b b b b b b b b b b b b b b b b ",
"b b b b b b b b b b b b b b b b b b b N ) ) ) ) ) ) ) ) ) ) ) ) ) ) ) ) ) U b b b b b b b b b b b b b b b b b b b ",
"b b b b b b b b b b b b b b b b b b b N ) ) ) ) ) ) ) ) ) ) ) ) ) ) ) ) ) U b b b b b b b b b b b b b b b b b b b ",
"b b b b b b b b b b b b b b b b b b b N ) ) ) ) ) ) ) ) ) ) ) ) ) ) ) ) ) U b b b b b b b b b b b b b b b b b b b ",
"b b b b b b b b b b b b b b b b b b b V ) ) ) ) ) ) ) ) ) ) ) ) ) ) ) ) ) U b b b b b b b b b b b b b b b b b b b ",
"b b b b b b b b b b b b b b b b b b b V ) ) ) ) ) ) ) ) ) ) ) ) ) ) ) ) ) W b b b b b b b b b b b b b b b b b b b ",
"b b b b b b b b b b b b b b b b b b b X ) ) ) ) ) ) ) ) ) ) ) ) ) ) ) ) ) R b b b b b b b b b b b b b b b b b b b ",
"b b b b b b b b b b b b b b b b b b b N ) ) ) ) ) ) ) ) ) ) ) ) ) ) ) ) ) Y b b b b b b b b b b b b b b b b b b b ",
"b b b b b b b b b b b b b b b b b b b Z ) ) ) ) ) ) ) ) ) ) ) ) ) ) ) ) ) ` b b b b b b b b b b b b b b b b b b b ",
"b b b b b b b b b b b b b b b b b b b N ) ) ) ) ) ) ) ) ) ) ) ) ) ) ) ) ) T b b b b b b b b b b b b b b b b b b b ",
"b b b b b b b b b b b b b b b b b b b f 3 % ;  .@ @ @ @ @ @ @ @ # @ %  .; Z b b b b b b b b b b b b b b b b b b b "};
