/* XPM */
static char * two_xpm[] = {
"57 130 97 2",
"  	c #C1C1C1",
". 	c #444444",
"+ 	c #4B4B4B",
"@ 	c #4A4A4A",
"# 	c #4C4C4C",
"$ 	c #4D4D4D",
"% 	c #474747",
"& 	c #545454",
"* 	c #E7E7E7",
"= 	c #9F9F9F",
"- 	c #FFFFFF",
"; 	c #E0E0E0",
"> 	c #A5A5A5",
", 	c #E1E1E1",
"' 	c #A4A4A4",
") 	c #DDDDDD",
"! 	c #DBDBDB",
"~ 	c #FDFDFD",
"{ 	c #D8D8D8",
"] 	c #DCDCDC",
"^ 	c #D9D9D9",
"/ 	c #DFDFDF",
"( 	c #FCFCFC",
"_ 	c #E8E8E8",
": 	c #FEFEFE",
"< 	c #E2E2E2",
"[ 	c #2D2D2D",
"} 	c #3A3A3A",
"| 	c #343434",
"1 	c #353535",
"2 	c #373737",
"3 	c #383838",
"4 	c #212121",
"5 	c #E5E5E5",
"6 	c #D4D4D4",
"7 	c #1C1117",
"8 	c #919191",
"9 	c #909090",
"0 	c #DEDEDE",
"a 	c #8E8E8E",
"b 	c #E4E4E4",
"c 	c #939393",
"d 	c #979797",
"e 	c #989898",
"f 	c #999999",
"g 	c #D3D3D3",
"h 	c #9A9A9A",
"i 	c #D2D2D2",
"j 	c #FBFBFB",
"k 	c #D1D1D1",
"l 	c #D7D7D7",
"m 	c #929292",
"n 	c #949494",
"o 	c #969696",
"p 	c #D0D0D0",
"q 	c #CFCFCF",
"r 	c #CECECE",
"s 	c #A3A3A3",
"t 	c #A2A2A2",
"u 	c #CBCBCB",
"v 	c #BABABA",
"w 	c #3B3B3B",
"x 	c #454545",
"y 	c #494949",
"z 	c #414141",
"A 	c #424242",
"B 	c #404040",
"C 	c #3E3E3E",
"D 	c #3F3F3F",
"E 	c #3C3C3C",
"F 	c #8F8F8F",
"G 	c #8C8C8C",
"H 	c #B6B6B6",
"I 	c #2F2F2F",
"J 	c #363636",
"K 	c #393939",
"L 	c #464646",
"M 	c #434343",
"N 	c #3D3D3D",
"O 	c #232323",
"P 	c #AAAAAA",
"Q 	c #F1F1F1",
"R 	c #E3E3E3",
"S 	c #A9A9A9",
"T 	c #FAFAFA",
"U 	c #A8A8A8",
"V 	c #A0A0A0",
"W 	c #A1A1A1",
"X 	c #484848",
"Y 	c #4F4F4F",
"Z 	c #E9E9E9",
"` 	c #D5D5D5",
" .	c #D6D6D6",
"..	c #313131",
"+.	c #A6A6A6",
"@.	c #4E4E4E",
"#.	c #525252",
"  . + @ @ # + # $ # # # # # # # # # # # # # # # # # # # # # # # # # # # # # # # # # # # # # # # # % + @ + @ % & * ",
"= - - - - - - - - - - - - - - - - - - - - - - - - - - - - - - - - - - - - - - - - - - - - - - - - - - - - - - - ; ",
"> - - - - - - - - - - - - - - - - - - - - - - - - - - - - - - - - - - - - - - - - - - - - - - - - - - - - - - - , ",
"' - - - - - - - - - - - - - - - - - - - - - - - - - - - - - - - - - - - - - - - - - - - - - - - - - - - - - - - ) ",
"' - - - - - - - - - - - - - - - - - - - - - - - - - - - - - - - - - - - - - - - - - - - - - - - - - - - - - - - , ",
"' - - - - - - - - - - - - - - - - - - - - - - - - - - - - - - - - - - - - - - - - - - - - - - - - - - - - - - - ; ",
"' - - - - - - - - - - - - - - - - - - - - - - - - - - - - - - - - - - - - - - - - - - - - - - - - - - - - - - - ) ",
"' - - - - - - - - - - - - - - - - - - - - - - - - - - - - - - - - - - - - - - - - - - - - - - - - - - - - - - - ) ",
"' - - - - - - - - - - - - - - - - - - - - - - - - - - - - - - - - - - - - - - - - - - - - - - - - - - - - - - - ) ",
"' - - - - - - - - - - - - - - - - - - - - - - - - - - - - - - - - - - - - - - - - - - - - - - - - - - - - - - - ! ",
"' - - - - - - - - - - - - - - - - - - - - - - - - - - - - - - - - - - - - - - - - - - - - - - - - - - - - - - ~ ! ",
"' - - - - - - - - - - - - - - - - - - - - - - - - - - - - - - - - - - - - - - - - - - - - - - - - - - - - - - - ) ",
"' - - - - - - - - - - - - - - - - - - - - - - - - - - - - - - - - - - - - - - - - - - - - - - - - - - - - - - - { ",
"' - - - - - - - - - - - - - - - - - - - - - - - - - - - - - - - - - - - - - - - - - - - - - - - - - - - - - - - ] ",
"' - - - - - - - - - - - - - - - - - - - - - - - - - - - - - - - - - - - - - - - - - - - - - - - - - - - - - - - ^ ",
"' - - - - - - - - - - - - - - - - - - - - - - - - - - - - - - - - - - - - - - - - - - - - - - - - - - - - - - - / ",
"' - - - - - - - - - - - - - - - - - - - - - - - - - - - - - - - - - - - - - - - - - - - - - - - - - - - - - - ( _ ",
"' - - - - - - - - - - - - - - - - - - - - - - - - - - - - - - - - - - - - - - - - - - - - - - - - - - - - - - : < ",
"' - - - - - - - - - - - - - - - - - - [ } | } 1 2 2 2 2 2 2 2 2 2 2 3 3 3 4 - - - - - - - - - - - - - - - - - : 5 ",
"' - - - - - - - - - - - - - - - - - - 6 7 7 7 7 7 7 7 7 7 7 7 7 7 7 7 7 7 8 - - - - - - - - - - - - - - - - - : < ",
"' - - - - - - - - - - - - - - - - - - 6 7 7 7 7 7 7 7 7 7 7 7 7 7 7 7 7 7 8 - - - - - - - - - - - - - - - - - : ; ",
"' - - - - - - - - - - - - - - - - - - 6 7 7 7 7 7 7 7 7 7 7 7 7 7 7 7 7 7 8 - - - - - - - - - - - - - - - - - - ! ",
"' - - - - - - - - - - - - - - - - - - 6 7 7 7 7 7 7 7 7 7 7 7 7 7 7 7 7 7 9 - - - - - - - - - - - - - - - - - - ] ",
"' - - - - - - - - - - - - - - - - - - 6 7 7 7 7 7 7 7 7 7 7 7 7 7 7 7 7 7 9 - - - - - - - - - - - - - - - - - - 0 ",
"' - - - - - - - - - - - - - - - - - - 6 7 7 7 7 7 7 7 7 7 7 7 7 7 7 7 7 7 9 - - - - - - - - - - - - - - - - - - ] ",
"' - - - - - - - - - - - - - - - - - - 6 7 7 7 7 7 7 7 7 7 7 7 7 7 7 7 7 7 9 - - - - - - - - - - - - - - - - - - ; ",
"' - - - - - - - - - - - - - - - - - - 6 7 7 7 7 7 7 7 7 7 7 7 7 7 7 7 7 7 9 - - - - - - - - - - - - - - - - - : 5 ",
"' - - - - - - - - - - - - - - - - - - 6 7 7 7 7 7 7 7 7 7 7 7 7 7 7 7 7 7 a - - - - - - - - - - - - - - - - - - b ",
"' - - - - - - - - - - - - - - - - - - 6 7 7 7 7 7 7 7 7 7 7 7 7 7 7 7 7 7 c - : - - - - - - - - - - - - - - - - 0 ",
"' - - - - - - - - - - - - - - - - - - 6 7 7 7 7 7 7 7 7 7 7 7 7 7 7 7 7 7 d - : - - - - - - - - - - - - - - - - 0 ",
"' - - - - - - - - - - - - - - - - - - 6 7 7 7 7 7 7 7 7 7 7 7 7 7 7 7 7 7 e - : - - - - - - - - - - - - - - - - ; ",
"' - - - - - - - - - - - - - - - - - - 6 7 7 7 7 7 7 7 7 7 7 7 7 7 7 7 7 7 f - - - - - - - - - - - - - - - - - - / ",
"' - - - - - - - - - - - - - - - - - - g 7 7 7 7 7 7 7 7 7 7 7 7 7 7 7 7 7 f - - - - - - - - - - - - - - - - - - / ",
"' - - - - - - - - - - - - - - - - - - g 7 7 7 7 7 7 7 7 7 7 7 7 7 7 7 7 7 e - - - - - - - - - - - - - - - - - - , ",
"' - - - - - - - - - - - - - - - - - - g 7 7 7 7 7 7 7 7 7 7 7 7 7 7 7 7 7 d - - - - - - - - - - - - - - - - - - , ",
"' - - - - - - - - - - - - - - - - - - g 7 7 7 7 7 7 7 7 7 7 7 7 7 7 7 7 7 h - - - - - - - - - - - - - - - - - - ; ",
"' - - - - - - - - - - - - - - - - - - i 7 7 7 7 7 7 7 7 7 7 7 7 7 7 7 7 7 e j - - - - - - - - - - - - - - - - - / ",
"' - - - - - - - - - - - - - - - - - - k 7 7 7 7 7 7 7 7 7 7 7 7 7 7 7 7 7 h - - - - - - - - - - - - - - - - - - / ",
"' - - - - - - - - - - - - - - - - - - g 7 7 7 7 7 7 7 7 7 7 7 7 7 7 7 7 7 f j - - - - - - - - - - - - - - - - - , ",
"' - - - - - - - - - - - - - - - - - - l 7 7 7 7 7 7 7 7 7 7 7 7 7 7 7 7 7 m - - - - - - - - - - - - - - - - - - < ",
"' - - - - - - - - - - - - - - - - - - ^ 7 7 7 7 7 7 7 7 7 7 7 7 7 7 7 7 7 9 - - - - - - - - - - - - - - - - - - < ",
"' - - - - - - - - - - - - - - - - - - l 7 7 7 7 7 7 7 7 7 7 7 7 7 7 7 7 7 n - - - - - - - - - - - - - - - - - - , ",
"' - - - - - - - - - - - - - - - - - - g 7 7 7 7 7 7 7 7 7 7 7 7 7 7 7 7 7 o - - - - - - - - - - - - - - - - - - , ",
"' - - - - - - - - - - - - - - - - - - p 7 7 7 7 7 7 7 7 7 7 7 7 7 7 7 7 7 o - - - - - - - - - - - - - - - - - - < ",
"' - - - - - - - - - - - - - - - - - - q 7 7 7 7 7 7 7 7 7 7 7 7 7 7 7 7 7 e - - - - - - - - - - - - - - - - - - < ",
"' - - - - - - - - - - - - - - - - - - r 7 7 7 7 7 7 7 7 7 7 7 7 7 7 7 7 7 f - - - - - - - - - - - - - - - - - - < ",
"' - - - - - - - - - - - - - - - - - - r 7 7 7 7 7 7 7 7 7 7 7 7 7 7 7 7 7 e - - - - - - - - - - - - - - - - - - < ",
"' - - - - - - - - - - - - - - - - - - r 7 7 7 7 7 7 7 7 7 7 7 7 7 7 7 7 7 e - - - - - - - - - - - - - - - - - - < ",
"s - - - - - - - - - - - - - - - - - - q 7 7 7 7 7 7 7 7 7 7 7 7 7 7 7 7 7 h - - - - - - - - - - - - - - - - - - < ",
"s - - - - - - - - - - - - - - - - - - g 7 7 7 7 7 7 7 7 7 7 7 7 7 7 7 7 7 f - - - - - - - - - - - - - - - - - - < ",
"s - - - - - - - - - - - - - - - - - - ^ 7 7 7 7 7 7 7 7 7 7 7 7 7 7 7 7 7 d - - - - - - - - - - - - - - - - - - < ",
"t - - - - - - - - - - - - - - - - - - l 7 7 7 7 7 7 7 7 7 7 7 7 7 7 7 7 7 m - - - - - - - - - - - - - - - - - - < ",
"' - - - - - - - - - - - - - - - - - - l 7 7 7 7 7 7 7 7 7 7 7 7 7 7 7 7 7 8 - - - - - - - - - - - - - - - - - - < ",
"> - - - - - - - - - - - - - - - - - - 6 7 7 7 7 7 7 7 7 7 7 7 7 7 7 7 7 7 9 - - - - - - - - - - - - - - - - - - < ",
"= - - - - - - - - - - - - - ~ - - - - u 7 7 7 7 7 7 7 7 7 7 7 7 7 7 7 7 7 9 - - - - - - - - - - - - - - - - - - < ",
"v w x y y . z A B C z D z @ # y y C E ^ 7 7 7 7 7 7 7 7 7 7 7 7 7 7 7 7 7 8 - - - - - - - - - - - - - - - - - - < ",
"7 7 7 7 7 7 7 7 7 7 7 7 7 7 7 7 7 7 7 7 7 7 7 7 7 7 7 7 7 7 7 7 7 7 7 7 7 m - - - - - - - - - - - - - - - - - - < ",
"7 7 7 7 7 7 7 7 7 7 7 7 7 7 7 7 7 7 7 7 7 7 7 7 7 7 7 7 7 7 7 7 7 7 7 7 7 m - - - - - - - - - - - - - - - - - - < ",
"7 7 7 7 7 7 7 7 7 7 7 7 7 7 7 7 7 7 7 7 7 7 7 7 7 7 7 7 7 7 7 7 7 7 7 7 7 8 - - - - - - - - - - - - - - - - - - < ",
"7 7 7 7 7 7 7 7 7 7 7 7 7 7 7 7 7 7 7 7 7 7 7 7 7 7 7 7 7 7 7 7 7 7 7 7 7 8 - - - - - - - - - - - - - - - - - - < ",
"7 7 7 7 7 7 7 7 7 7 7 7 7 7 7 7 7 7 7 7 7 7 7 7 7 7 7 7 7 7 7 7 7 7 7 7 7 8 - - - - - - - - - - - - - - - - - - < ",
"7 7 7 7 7 7 7 7 7 7 7 7 7 7 7 7 7 7 7 7 7 7 7 7 7 7 7 7 7 7 7 7 7 7 7 7 7 m - - - - - - - - - - - - - - - - - - < ",
"7 7 7 7 7 7 7 7 7 7 7 7 7 7 7 7 7 7 7 7 7 7 7 7 7 7 7 7 7 7 7 7 7 7 7 7 7 m - - - - - - - - - - - - - - - - - - < ",
"7 7 7 7 7 7 7 7 7 7 7 7 7 7 7 7 7 7 7 7 7 7 7 7 7 7 7 7 7 7 7 7 7 7 7 7 7 m - - - - - - - - - - - - - - - - - - < ",
"7 7 7 7 7 7 7 7 7 7 7 7 7 7 7 7 7 7 7 7 7 7 7 7 7 7 7 7 7 7 7 7 7 7 7 7 7 m - - - - - - - - - - - - - - - - - - < ",
"7 7 7 7 7 7 7 7 7 7 7 7 7 7 7 7 7 7 7 7 7 7 7 7 7 7 7 7 7 7 7 7 7 7 7 7 7 m - - - - - - - - - - - - - - - - - - < ",
"7 7 7 7 7 7 7 7 7 7 7 7 7 7 7 7 7 7 7 7 7 7 7 7 7 7 7 7 7 7 7 7 7 7 7 7 7 m - - - - - - - - - - - - - - - - - - < ",
"7 7 7 7 7 7 7 7 7 7 7 7 7 7 7 7 7 7 7 7 7 7 7 7 7 7 7 7 7 7 7 7 7 7 7 7 7 F - - - - - - - - - - - - - - - - - - < ",
"7 7 7 7 7 7 7 7 7 7 7 7 7 7 7 7 7 7 7 7 7 7 7 7 7 7 7 7 7 7 7 7 7 7 7 7 7 c - - - - - - - - - - - - - - - - - - < ",
"7 7 7 7 7 7 7 7 7 7 7 7 7 7 7 7 7 7 7 7 7 7 7 7 7 7 7 7 7 7 7 7 7 7 7 7 7 8 - - - - - - - - - - - - - - - - - - < ",
"7 7 7 7 7 7 7 7 7 7 7 7 7 7 7 7 7 7 7 7 7 7 7 7 7 7 7 7 7 7 7 7 7 7 7 7 7 m - - - - - - - - - - - - - - - - - - < ",
"7 7 7 7 7 7 7 7 7 7 7 7 7 7 7 7 7 7 7 7 7 7 7 7 7 7 7 7 7 7 7 7 7 7 7 7 7 G - - - - - - - - - - - - - - - - - - < ",
"7 7 7 7 7 7 7 7 7 7 7 7 7 7 7 7 7 7 7 7 7 7 7 7 7 7 7 7 7 7 7 7 7 7 7 7 7 F - - - - - - - - - - - - - - - - - - < ",
"7 7 7 7 7 7 7 7 7 7 7 7 7 7 7 7 7 7 7 7 7 7 7 7 7 7 7 7 7 7 7 7 7 7 7 7 7 a - - - - - - - - - - - - - - - - - - < ",
"H I J K w A % L M x x L x z E 3 2 3 K K K K K K K 3 K K K K K K K } | K N O - - - - - - - - - - - - - - - - - - < ",
"P - - - - - - - Q R - - - - - - - - - - - - - - - - - - - - - - - - - - - - - - - - - - - - - - - - - - - - - - < ",
"S T - - - - - - - - - - - - - - - - - - - - - - - - - - - - - - - - - - - - - - - - - - - - - - - - - - - - - - < ",
"U - - - - - - - - - - - - - - - - - - - - - - - - - - - - - - - - - - - - - - - - - - - - - - - - - - - - - - - < ",
"P T - - - - - - - - - - - - - - - - - - - - - - - - - - - - - - - - - - - - - - - - - - - - - - - - - - - - - - < ",
"P - - - - - - - - - - - - - - - - - - - - - - - - - - - - - - - - - - - - - - - - - - - - - - - - - - - - - - - < ",
"U - - - - - - - - - - - - - - - - - - - - - - - - - - - - - - - - - - - - - - - - - - - - - - - - - - - - - - - < ",
"s - - - - - - - - - - - - - - - - - - - - - - - - - - - - - - - - - - - - - - - - - - - - - - - - - - - - - - - < ",
"V - - - - - - - - - - - - - - - - - - - - - - - - - - - - - - - - - - - - - - - - - - - - - - - - - - - - - - - < ",
"V - - - - - - - - - - - - - - - - - - - - - - - - - - - - - - - - - - - - - - - - - - - - - - - - - - - - - - - , ",
"V - - - - - - - - - - - - - - - - - - - - - - - - - - - - - - - - - - - - - - - - - - - - - - - - - - - - - - - < ",
"V - - - - - - - - - - - - - - - - - - - - - - - - - - - - - - - - - - - - - - - - - - - - - - - - - - - - - - - < ",
"W - - - - - - - - - - - - - - - - - - - - - - - - - - - - - - - - - - - - - - - - - - - - - - - - - - - - - - - < ",
"W - - - - - - - - - - - - - - - - - - - - - - - - - - - - - - - - - - - - - - - - - - - - - - - - - - - - - - - < ",
"t - - - - - - - - - - - - - - - - - - - - - - - - - - - - - - - - - - - - - - - - - - - - - - - - - - - - - - - , ",
"W - - - - - - - - - - - - - - - - - - - - - - - - - - - - - - - - - - - - - - - - - - - - - - - - - - - - - - - < ",
"W - - - - - - - - - - - - - - - - - - - - - - - - - - - - - - - - - - - - - - - - - - - - - - - - - - - - - - - b ",
"t - - - - - - - - - - - - - - - - - - - - - - - - - - - - - - - - - - - - - - - - - - - - - - - - - - - - - - - < ",
"s - - - - - - - - - - - - - - - - - - w % y % X y y y y y y y y y y y y y y y y y y y y y y y y y % y X y + M Y Z ",
"s - - - - - - - - - - - - - - - - - - l 7 7 7 7 7 7 7 7 7 7 7 7 7 7 7 7 7 7 7 7 7 7 7 7 7 7 7 7 7 7 7 7 7 7 7 7 7 ",
"s - - - - - - - - - - - - - - - - - - k 7 7 7 7 7 7 7 7 7 7 7 7 7 7 7 7 7 7 7 7 7 7 7 7 7 7 7 7 7 7 7 7 7 7 7 7 7 ",
"' - - - - - - - - - - - - - - - - - - l 7 7 7 7 7 7 7 7 7 7 7 7 7 7 7 7 7 7 7 7 7 7 7 7 7 7 7 7 7 7 7 7 7 7 7 7 7 ",
"s - - - - - - - - - - - - - - - - - - ` 7 7 7 7 7 7 7 7 7 7 7 7 7 7 7 7 7 7 7 7 7 7 7 7 7 7 7 7 7 7 7 7 7 7 7 7 7 ",
"s - - - - - - - - - - - - - - - - - - ` 7 7 7 7 7 7 7 7 7 7 7 7 7 7 7 7 7 7 7 7 7 7 7 7 7 7 7 7 7 7 7 7 7 7 7 7 7 ",
"' - - - - - - - - - - - - - - - - - - l 7 7 7 7 7 7 7 7 7 7 7 7 7 7 7 7 7 7 7 7 7 7 7 7 7 7 7 7 7 7 7 7 7 7 7 7 7 ",
"' - - - - - - - - - - - - - - - - - - 6 7 7 7 7 7 7 7 7 7 7 7 7 7 7 7 7 7 7 7 7 7 7 7 7 7 7 7 7 7 7 7 7 7 7 7 7 7 ",
"' - - - - - - - - - - - - - - - - - - 6 7 7 7 7 7 7 7 7 7 7 7 7 7 7 7 7 7 7 7 7 7 7 7 7 7 7 7 7 7 7 7 7 7 7 7 7 7 ",
"' - - - - - - - - - - - - - - - - - - 6 7 7 7 7 7 7 7 7 7 7 7 7 7 7 7 7 7 7 7 7 7 7 7 7 7 7 7 7 7 7 7 7 7 7 7 7 7 ",
"' - - - - - - - - - - - - - - - - - - 6 7 7 7 7 7 7 7 7 7 7 7 7 7 7 7 7 7 7 7 7 7 7 7 7 7 7 7 7 7 7 7 7 7 7 7 7 7 ",
"' - - - - - - - - - - - - - - - - - - 6 7 7 7 7 7 7 7 7 7 7 7 7 7 7 7 7 7 7 7 7 7 7 7 7 7 7 7 7 7 7 7 7 7 7 7 7 7 ",
"' - - - - - - - - - - - - - - - - - - 6 7 7 7 7 7 7 7 7 7 7 7 7 7 7 7 7 7 7 7 7 7 7 7 7 7 7 7 7 7 7 7 7 7 7 7 7 7 ",
"' - - - - - - - - - - - - - - - - - - 6 7 7 7 7 7 7 7 7 7 7 7 7 7 7 7 7 7 7 7 7 7 7 7 7 7 7 7 7 7 7 7 7 7 7 7 7 7 ",
"' - - - - - - - - - - - - - - - - - - 6 7 7 7 7 7 7 7 7 7 7 7 7 7 7 7 7 7 7 7 7 7 7 7 7 7 7 7 7 7 7 7 7 7 7 7 7 7 ",
"' - - - - - - - - - - - - - - - - - - ` 7 7 7 7 7 7 7 7 7 7 7 7 7 7 7 7 7 7 7 7 7 7 7 7 7 7 7 7 7 7 7 7 7 7 7 7 7 ",
"' - - - - - - - - - - - - - - - - - - i 7 7 7 7 7 7 7 7 7 7 7 7 7 7 7 7 7 7 7 7 7 7 7 7 7 7 7 7 7 7 7 7 7 7 7 7 7 ",
"' - - - - - - - - - - - - - - - - - -  .7 7 7 7 7 7 7 7 7 7 7 7 7 7 7 7 7 7 7 7 7 7 7 7 7 7 7 7 7 7 7 7 7 7 7 7 7 ",
"' - - - - - - - - - - - - - - - - - - ` 7 7 7 7 7 7 7 7 7 7 7 7 7 7 7 7 7 7 7 7 7 7 7 7 7 7 7 7 7 7 7 7 7 7 7 7 7 ",
"' - - - - - - - - - - - - - - - - - - [ K 3 3 1 2 3 3 3 3 3 3 3 3 3 3 3 3 3 3 3 3 3 3 3 3 3 3 3 3 3 J J ..3 2 E Z ",
"' - - - - - - - - - - - - - - - - - - - - - - - - - - - - - - - - - - - - - - - - - - - - - - - - - - - - - - - ; ",
"' - - - - - - - - - - - - - - - - - - - - - - - - - - - - - - - - - - - - - - - - - - - - - - - - - - - - - - - b ",
"' - - - - - - - - - - - - - - - - - - - - - - - - - - - - - - - - - - - - - - - - - - - - - - - - - - - - - - - , ",
"' - - - - - - - - - - - - - - - - - - - - - - - - - - - - - - - - - - - - - - - - - - - - - - - - - - - - - - - < ",
"' - - - - - - - - - - - - - - - - - - - - - - - - - - - - - - - - - - - - - - - - - - - - - - - - - - - - - - - < ",
"' - - - - - - - - - - - - - - - - - - - - - - - - - - - - - - - - - - - - - - - - - - - - - - - - - - - - - - - < ",
"' - - - - - - - - - - - - - - - - - - - - - - - - - - - - - - - - - - - - - - - - - - - - - - - - - - - - - - - < ",
"' - - - - - - - - - - - - - - - - - - - - - - - - - - - - - - - - - - - - - - - - - - - - - - - - - - - - - - - < ",
"' - - - - - - - - - - - - - - - - - - - - - - - - - - - - - - - - - - - - - - - - - - - - - - - - - - - - - - - < ",
"' - - - - - - - - - - - - - - - - - - - - - - - - - - - - - - - - - - - - - - - - - - - - - - - - - - - - - - - < ",
"' - - - - - - - - - - - - - - - - - - - - - - - - - - - - - - - - - - - - - - - - - - - - - - - - - - - - - - - < ",
"s - - - - - - - - - - - - - - - - - - - - - - - - - - - - - - - - - - - - - - - - - - - - - - - - - - - - - - - , ",
"+.- - - - - - - - - - - - - - - - - - - - - - - - - - - - - - - - - - - - - - - - - - - - - - - - - - - - - - - R ",
"t - - - - - - - - - - - - - - - - - - - - - - - - - - - - - - - - - - - - - - - - - - - - - - - - - - - - - - - < ",
"> - - - - - - - - - - - - - - - - - - - - - - - - - - - - - - - - - - - - - - - - - - - - - - - - - - - - - - - R ",
"U - - - - - - - - - - - - - - - - - - - - - - - - - - - - - - - - - - - - - - - - - - - - - - - - - - - - - - - , ",
"W - - - - - - - - - - - - - - - - - - - - - - - - - - - - - - - - - - - - - - - - - - - - - - - - - - - - - - - R ",
"  . @ X @ @ $ $ @.+ + + + + + + + + + + + + + + + + + + + + + + + + + + + + + + + + + + + + + + + + + @.+ y + #.Z "};
