/* XPM */
static char * zero_xpm[] = {
"57 130 50 1",
" 	c #9B9B9B",
".	c #3C3C3C",
"+	c #4C4C4C",
"@	c #4A4A4A",
"#	c #484848",
"$	c #4B4B4B",
"%	c #505050",
"&	c #555555",
"*	c #565656",
"=	c #494949",
"-	c #464646",
";	c #646464",
">	c #1C1117",
",	c #7B7B7B",
"'	c #FFFFFF",
")	c #212121",
"!	c #797979",
"~	c #292929",
"{	c #242424",
"]	c #787878",
"^	c #777777",
"/	c #323232",
"(	c #383838",
"_	c #343434",
":	c #353535",
"<	c #393939",
"[	c #373737",
"}	c #363636",
"|	c #181818",
"1	c #171717",
"2	c #666666",
"3	c #3D3D3D",
"4	c #676767",
"5	c #656565",
"6	c #828181",
"7	c #313131",
"8	c #3B3B3B",
"9	c #3A3A3A",
"0	c #191919",
"a	c #737373",
"b	c #252525",
"c	c #767676",
"d	c #282828",
"e	c #232323",
"f	c #7C7C7C",
"g	c #A0A0A0",
"h	c #434343",
"i	c #4D4D4D",
"j	c #4E4E4E",
"k	c #636363",
" .+@#$%&***%@@$$$$$$$+++++++++++++++++++++++++++++@$=+-;>",
",'''''''''''''''''''''''''''''''''''''''''''''''''''''')>",
"!''''''''''''''''''''''''''''''''''''''''''''''''''''''~>",
"!''''''''''''''''''''''''''''''''''''''''''''''''''''''{>",
"]''''''''''''''''''''''''''''''''''''''''''''''''''''''{>",
"]''''''''''''''''''''''''''''''''''''''''''''''''''''''{>",
"^''''''''''''''''''''''''''''''''''''''''''''''''''''''{>",
"]''''''''''''''''''''''''''''''''''''''''''''''''''''''{>",
"]''''''''''''''''''''''''''''''''''''''''''''''''''''''{>",
"]''''''''''''''''''''''''''''''''''''''''''''''''''''''{>",
"^''''''''''''''''''''''''''''''''''''''''''''''''''''''{>",
"^''''''''''''''''''''''''''''''''''''''''''''''''''''''{>",
"^''''''''''''''''''''''''''''''''''''''''''''''''''''''{>",
"^''''''''''''''''''''''''''''''''''''''''''''''''''''''{>",
"^''''''''''''''''''''''''''''''''''''''''''''''''''''''{>",
"^''''''''''''''''''''''''''''''''''''''''''''''''''''''{>",
"^''''''''''''''''''''''''''''''''''''''''''''''''''''''{>",
"^''''''''''''''''''''''''''''''''''''''''''''''''''''''{>",
"^''''''''''''''''''/(_(:<:[[[[[[[[}([|'''''''''''''''''{>",
"]'''''''''''''''''1>>>>>>>>>>>>>>>>>>;'''''''''''''''''{>",
"]'''''''''''''''''1>>>>>>>>>>>>>>>>>>;'''''''''''''''''{>",
"!'''''''''''''''''1>>>>>>>>>>>>>>>>>>;'''''''''''''''''{>",
"!'''''''''''''''''1>>>>>>>>>>>>>>>>>>;'''''''''''''''''{>",
"!'''''''''''''''''1>>>>>>>>>>>>>>>>>>;'''''''''''''''''{>",
"!'''''''''''''''''1>>>>>>>>>>>>>>>>>>;'''''''''''''''''{>",
"!'''''''''''''''''|>>>>>>>>>>>>>>>>>>;'''''''''''''''''{>",
"!'''''''''''''''''1>>>>>>>>>>>>>>>>>>;'''''''''''''''''{>",
"!'''''''''''''''''1>>>>>>>>>>>>>>>>>>2'''''''''''''''''{>",
"!'''''''''''''''''1>>>>>>>>>>>>>>>>>>2'''''''''''''''''{>",
"!'''''''''''''''''1>>>>>>>>>>>>>>>>>>2'''''''''''''''''{>",
"!'''''''''''''''''1>>>>>>>>>>>>>>>>>>2'''''''''''''''''{>",
"!'''''''''''''''''1>>>>>>>>>>>>>>>>>>2'''''''''''''''''{>",
"!'''''''''''''''''1>>>>>>>>>>>>>>>>>>2'''''''''''''''''{>",
"!'''''''''''''''''1>>>>>>>>>>>>>>>>>>2'''''''''''''''''{>",
"!'''''''''''''''''1>>>>>>>>>>>>>>>>>>2'''''''''''''''''{>",
"!'''''''''''''''''1>>>>>>>>>>>>>>>>>>2'''''''''''''''''{>",
"!'''''''''''''''''1>>>>>>>>>>>>>>>>>>2'''''''''''''''''{>",
"!'''''''''''''''''1>>>>>>>>>>>>>>>>>>2'''''''''''''''''{>",
"!'''''''''''''''''1>>>>>>>>>>>>>>>>>>2'''''''''''''''''{>",
"!'''''''''''''''''1>>>>>>>>>>>>>>>>>>2'''''''''''''''''{>",
"!'''''''''''''''''1>>>>>>>>>>>>>>>>>>2'''''''''''''''''{>",
"!'''''''''''''''''1>>>>>>>>>>>>>>>>>>2'''''''''''''''''{>",
"!'''''''''''''''''1>>>>>>>>>>>>>>>>>>2'''''''''''''''''{>",
"!'''''''''''''''''1>>>>>>>>>>>>>>>>>>2'''''''''''''''''{>",
"!'''''''''''''''''1>>>>>>>>>>>>>>>>>>2'''''''''''''''''{>",
"!'''''''''''''''''1>>>>>>>>>>>>>>>>>>2'''''''''''''''''{>",
"!'''''''''''''''''1>>>>>>>>>>>>>>>>>>2'''''''''''''''''{>",
"!'''''''''''''''''1>>>>>>>>>>>>>>>>>>2'''''''''''''''''{>",
"!'''''''''''''''''1>>>>>>>>>>>>>>>>>>2'''''''''''''''''{>",
"!'''''''''''''''''1>>>>>>>>>>>>>>>>>>2'''''''''''''''''{>",
"!'''''''''''''''''1>>>>>>>>>>>>>>>>>>2'''''''''''''''''{>",
"!'''''''''''''''''1>>>>>>>>>>>>>>>>>>2'''''''''''''''''{>",
"!'''''''''''''''''1>>>>>>>>>>>>>>>>>>2'''''''''''''''''{>",
"!'''''''''''''''''1>>>>>>>>>>>>>>>>>>2'''''''''''''''''{>",
"!'''''''''''''''''1>>>>>>>>>>>>>>>>>>2'''''''''''''''''{>",
"!'''''''''''''''''1>>>>>>>>>>>>>>>>>>2'''''''''''''''''{>",
"!'''''''''''''''''1>>>>>>>>>>>>>>>>>>2'''''''''''''''''{>",
"!'''''''''''''''''1>>>>>>>>>>>>>>>>>>2'''''''''''''''''{>",
"!'''''''''''''''''1>>>>>>>>>>>>>>>>>>2'''''''''''''''''{>",
"!'''''''''''''''''1>>>>>>>>>>>>>>>>>>2'''''''''''''''''{>",
"!'''''''''''''''''1>>>>>>>>>>>>>>>>>>2'''''''''''''''''{>",
"!'''''''''''''''''1>>>>>>>>>>>>>>>>>>2'''''''''''''''''{>",
"!'''''''''''''''''1>>>>>>>>>>>>>>>>>>2'''''''''''''''''{>",
"!'''''''''''''''''1>>>>>>>>>>>>>>>>>>2'''''''''''''''''{>",
"!'''''''''''''''''1>>>>>>>>>>>>>>>>>>2'''''''''''''''''{>",
"!'''''''''''''''''1>>>>>>>>>>>>>>>>>>2'''''''''''''''''{>",
"!'''''''''''''''''1>>>>>>>>>>>>>>>>>>2'''''''''''''''''{>",
"!'''''''''''''''''1>>>>>>>>>>>>>>>>>>2'''''''''''''''''{>",
"!'''''''''''''''''1>>>>>>>>>>>>>>>>>>2'''''''''''''''''{>",
"!'''''''''''''''''1>>>>>>>>>>>>>>>>>>2'''''''''''''''''{>",
"!'''''''''''''''''1>>>>>>>>>>>>>>>>>>2'''''''''''''''''{>",
"!'''''''''''''''''1>>>>>>>>>>>>>>>>>>2'''''''''''''''''{>",
"!'''''''''''''''''1>>>>>>>>>>>>>>>>>>2'''''''''''''''''{>",
"!'''''''''''''''''1>>>>>>>>>>>>>>>>>>2'''''''''''''''''{>",
"!'''''''''''''''''1>>>>>>>>>>>>>>>>>>2'''''''''''''''''{>",
"!'''''''''''''''''1>>>>>>>>>>>>>>>>>>2'''''''''''''''''{>",
"!'''''''''''''''''1>>>>>>>>>>>>>>>>>>2'''''''''''''''''{>",
"!'''''''''''''''''1>>>>>>>>>>>>>>>>>>2'''''''''''''''''{>",
"!'''''''''''''''''1>>>>>>>>>>>>>>>>>>2'''''''''''''''''{>",
"!'''''''''''''''''1>>>>>>>>>>>>>>>>>>2'''''''''''''''''{>",
"!'''''''''''''''''1>>>>>>>>>>>>>>>>>>2'''''''''''''''''{>",
"!'''''''''''''''''1>>>>>>>>>>>>>>>>>>2'''''''''''''''''{>",
"!'''''''''''''''''1>>>>>>>>>>>>>>>>>>2'''''''''''''''''{>",
"!'''''''''''''''''1>>>>>>>>>>>>>>>>>>2'''''''''''''''''{>",
"!'''''''''''''''''1>>>>>>>>>>>>>>>>>>2'''''''''''''''''{>",
"!'''''''''''''''''1>>>>>>>>>>>>>>>>>>2'''''''''''''''''{>",
"!'''''''''''''''''1>>>>>>>>>>>>>>>>>>2'''''''''''''''''{>",
"!'''''''''''''''''1>>>>>>>>>>>>>>>>>>2'''''''''''''''''{>",
"!'''''''''''''''''1>>>>>>>>>>>>>>>>>>2'''''''''''''''''{>",
"!'''''''''''''''''1>>>>>>>>>>>>>>>>>>2'''''''''''''''''{>",
"!'''''''''''''''''1>>>>>>>>>>>>>>>>>>2'''''''''''''''''{>",
"!'''''''''''''''''1>>>>>>>>>>>>>>>>>>2'''''''''''''''''{>",
"!'''''''''''''''''1>>>>>>>>>>>>>>>>>>2'''''''''''''''''{>",
"!'''''''''''''''''1>>>>>>>>>>>>>>>>>>2'''''''''''''''''{>",
"!'''''''''''''''''1>>>>>>>>>>>>>>>>>>2'''''''''''''''''{>",
"!'''''''''''''''''1>>>>>>>>>>>>>>>>>>2'''''''''''''''''{>",
"!'''''''''''''''''1>>>>>>>>>>>>>>>>>>2'''''''''''''''''{>",
"!'''''''''''''''''1>>>>>>>>>>>>>>>>>>2'''''''''''''''''{>",
"!'''''''''''''''''1>>>>>>>>>>>>>>>>>>2'''''''''''''''''{>",
"!'''''''''''''''''1>>>>>>>>>>>>>>>>>>2'''''''''''''''''{>",
"!'''''''''''''''''1>>>>>>>>>>>>>>>>>>2'''''''''''''''''{>",
"!'''''''''''''''''1>>>>>>>>>>>>>>>>>>2'''''''''''''''''{>",
"!'''''''''''''''''1>>>>>>>>>>>>>>>>>>2'''''''''''''''''{>",
"!'''''''''''''''''1>>>>>>>>>>>>>>>>>>2'''''''''''''''''{>",
"!'''''''''''''''''1>>>>>>>>>>>>>>>>>>2'''''''''''''''''{>",
"!'''''''''''''''''1>>>>>>>>>>>>>>>>>>2'''''''''''''''''{>",
"!'''''''''''''''''1>>>>>>>>>>>>>>>>>>2'''''''''''''''''{>",
"!'''''''''''''''''|>>>>>>>>>>>>>>>>>>;'''''''''''''''''{>",
"!'''''''''''''''''3>>>>>>>>>>>>>>>>>>4'''''''''''''''''{>",
"!'''''''''''''''''3>>>>>>>>>>>>>>>>>>5'''''''''''''''''{>",
"!'''''''''''''''''|6>>>>>>>>>>>>>>>>>5'''''''''''''''''{>",
"!''''''''''''''''''78[/9:9(((((((([[<0'''''''''''''''''{>",
"!''''''''''''''''''''''''''''''''''''''''''''''''''''''{>",
"!''''''''''''''''''''''''''''''''''''''''''''''''''''''{>",
"!''''''''''''''''''''''''''''''''''''''''''''''''''''''{>",
"!''''''''''''''''''''''''''''''''''''''''''''''''''''''{>",
"!''''''''''''''''''''''''''''''''''''''''''''''''''''''{>",
"!''''''''''''''''''''''''''''''''''''''''''''''''''''''{>",
"!''''''''''''''''''''''''''''''''''''''''''''''''''''''{>",
"!''''''''''''''''''''''''''''''''''''''''''''''''''''''{>",
"!''''''''''''''''''''''''''''''''''''''''''''''''''''''{>",
"!''''''''''''''''''''''''''''''''''''''''''''''''''''''{>",
"!''''''''''''''''''''''''''''''''''''''''''''''''''''''{>",
"a''''''''''''''''''''''''''''''''''''''''''''''''''''''b>",
"c''''''''''''''''''''''''''''''''''''''''''''''''''''''d>",
",''''''''''''''''''''''''''''''''''''''''''''''''''''''e>",
"]''''''''''''''''''''''''''''''''''''''''''''''''''''''{>",
"f''''''''''''''''''''''''''''''''''''''''''''''''''''''~>",
",''''''''''''''''''''''''''''''''''''''''''''''''''''''e>",
"ghi@@$$$$$$$$$$$$$$$$$$$$$$$$$$$$$$$$$$$$$$$$$$$$$+$@j#k>"};
