/* XPM */
static char * knight_idle_anim_f0_reverse_xpm[] = {
"64 64 9 1",
" 	c #222222",
".	c #483B3A",
"+	c #060608",
"@	c #775C55",
"#	c #AC3232",
"$	c #847E87",
"%	c #9BADB7",
"&	c #FFFFFF",
"*	c #DF7126",
"            ....               ++++++++++++.    ....            ",
"            ....               ++++++++++++.    ....            ",
"            ....               ++++++++++++.    ....            ",
"            ....               ++++++++++++.    ....            ",
"    ...........................++++++++++++.................@@@@",
"    ...........................++++++++++++.................@@@@",
"    .......................++++########++++.................@@@@",
"    .......................++++########++++.................@@@@",
"...........................++++########++++.................@@@@",
"...........................++++########++++.................@@@@",
"...............++++++++++++++++$$$$++++.....................@@@@",
"...............++++++++++++++++$$$$++++.....................@@@@",
"...............++++++++++++++++$$$$++++.....................@@@@",
"...............++++++++++++++++$$$$++++.....................@@@@",
"...........++++%%%%%%%%%%%%%%%%$$$$$$$$++++.................@@@@",
"...........++++%%%%%%%%%%%%%%%%$$$$$$$$++++.................@@@@",
"    .......++++%%%%%%%%%%%%%%%%$$$$$$$$++++.................@@@@",
"    .......++++%%%%%%%%%%%%%%%%$$$$$$$$++++.................@@@@",
"    .......++++%%%%%%%%%%%%%%%%%%%%%%%%$$$$++++.............@@@@",
"    .......++++%%%%%%%%%%%%%%%%%%%%%%%%$$$$++++.............@@@@",
"...........++++%%%%%%%%%%%%%%%%%%%%%%%%$$$$++++.............@@@@",
"...........++++%%%%%%%%%%%%%%%%%%%%%%%%$$$$++++.............@@@@",
"...........++++&&&&&&&&&&&&&&&&&&&&%%%%%%%%++++.............@@@@",
"...........++++&&&&&&&&&&&&&&&&&&&&%%%%%%%%++++.............@@@@",
"    .......++++&&&&&&&&&&&&&&&&&&&&%%%%%%%%++++.................",
"    .......++++&&&&&&&&&&&&&&&&&&&&%%%%%%%%++++.................",
"    .......++++++++++++++++++++&&&&%%%%%%%%++++.................",
"    .......++++++++++++++++++++&&&&%%%%%%%%++++.................",
"    .......++++++++++++++++++++&&&&%%%%%%%%++++.............@@@@",
"    .......++++++++++++++++++++&&&&%%%%%%%%++++.............@@@@",
"    .......++++&&&&++++&&&&&&&&&&&&%%%%$$$$++++.............@@@@",
"    .......++++&&&&++++&&&&&&&&&&&&%%%%$$$$++++.............@@@@",
"    .......++++&&&&++++&&&&&&&&&&&&%%%%$$$$++++.................",
"    .......++++&&&&++++&&&&&&&&&&&&%%%%$$$$++++.................",
"    .......++++####****########$$$$$$$$++++++++.................",
"    .......++++####****########$$$$$$$$++++++++.................",
"...........++++####****########$$$$$$$$++++++++.............@@@@",
"...........++++####****########$$$$$$$$++++++++.............@@@@",
"...........++++$$$$$$$$$$$$$$$$########++++.................@@@@",
"...........++++$$$$$$$$$$$$$$$$########++++.................@@@@",
"...........++++$$$$$$$$$$$$$$$$########++++.................@@@@",
"...........++++$$$$$$$$$$$$$$$$########++++.................@@@@",
"...........++++%%%%%%%%%%%%%%%%$$$$$$$$++++####.............@@@@",
"...........++++%%%%%%%%%%%%%%%%$$$$$$$$++++####.............@@@@",
"    .......++++%%%%%%%%%%%%%%%%$$$$$$$$++++####.................",
"    .......++++%%%%%%%%%%%%%%%%$$$$$$$$++++####.................",
"    .......++++$$$$++++++++++++$$$$$$$$++++########.............",
"    .......++++$$$$++++++++++++$$$$$$$$++++########.............",
"    .......++++$$$$++++++++++++$$$$$$$$++++########.............",
"    .......++++$$$$++++++++++++$$$$$$$$++++########.............",
"    ...........++++$$$$++++####++++$$$$++++########.............",
"    ...........++++$$$$++++####++++$$$$++++########.............",
"    ...........++++$$$$++++####++++$$$$++++########.........@@@@",
"    ...........++++$$$$++++####++++$$$$++++########.........@@@@",
"    ...............++++++++........++++++++.................@@@@",
"    ...............++++++++........++++++++.................@@@@",
"    ...............++++++++........++++++++.................@@@@",
"    ...............++++++++........++++++++.................@@@@",
"    ........................................................@@@@",
"    ........................................................@@@@",
"@@@@@@@@@@@@........@@@@....@@@@@@@@@@@@@@@@....@@@@@@@@@@@@@@@@",
"@@@@@@@@@@@@........@@@@....@@@@@@@@@@@@@@@@....@@@@@@@@@@@@@@@@",
"@@@@@@@@@@@@........@@@@....@@@@@@@@@@@@@@@@....@@@@@@@@@@@@@@@@",
"@@@@@@@@@@@@........@@@@....@@@@@@@@@@@@@@@@....@@@@@@@@@@@@@@@@"};
