/* XPM */
static char * crate_xpm[] = {
"64 64 8 1",
" 	c #222222",
".	c #483B3A",
"+	c #775C55",
"@	c #21110D",
"#	c #9D7658",
"$	c #755338",
"%	c #503625",
"&	c #171C31",
"            ....                ............    ....            ",
"            ....                ............    ....            ",
"            ....                ............    ....            ",
"            ....                ............    ....            ",
"    ........................................................++++",
"    ........................................................++++",
"    ........................................................++++",
"    ........................................................++++",
"........@@@@@@@@@@@@@@@@@@@@@@@@@@@@@@@@@@@@@@@@@@@@@@@@....++++",
"........@@@@@@@@@@@@@@@@@@@@@@@@@@@@@@@@@@@@@@@@@@@@@@@@....++++",
"........@@@@@@@@@@@@@@@@@@@@@@@@@@@@@@@@@@@@@@@@@@@@@@@@....++++",
"........@@@@@@@@@@@@@@@@@@@@@@@@@@@@@@@@@@@@@@@@@@@@@@@@....++++",
"....@@@@########$$$$########################$$$$########@@@@++++",
"....@@@@########$$$$########################$$$$########@@@@++++",
"....@@@@########$$$$########################$$$$########@@@@++++",
"....@@@@########$$$$########################$$$$########@@@@++++",
"    @@@@########%%%%%%%%%%%%$$$$%%%%$$$$$$$$%%%%########@@@@++++",
"    @@@@########%%%%%%%%%%%%$$$$%%%%$$$$$$$$%%%%########@@@@++++",
"    @@@@########%%%%%%%%%%%%$$$$%%%%$$$$$$$$%%%%########@@@@++++",
"    @@@@########%%%%%%%%%%%%$$$$%%%%$$$$$$$$%%%%########@@@@++++",
"....@@@@########%%%%$$$$$$$$$$$$$$$$$$$$$$$$%%%%########@@@@++++",
"....@@@@########%%%%$$$$$$$$$$$$$$$$$$$$$$$$%%%%########@@@@++++",
"....@@@@########%%%%$$$$$$$$$$$$$$$$$$$$$$$$%%%%########@@@@++++",
"....@@@@########%%%%$$$$$$$$$$$$$$$$$$$$$$$$%%%%########@@@@++++",
"    @@@@########$$$$########################$$$$########@@@@....",
"    @@@@########$$$$########################$$$$########@@@@....",
"    @@@@########$$$$########################$$$$########@@@@....",
"    @@@@########$$$$########################$$$$########@@@@....",
"    @@@@$$$$$$$$%%%%$$$$$$$$$$$$$$$$$$$$########$$$$$$$$@@@@++++",
"    @@@@$$$$$$$$%%%%$$$$$$$$$$$$$$$$$$$$########$$$$$$$$@@@@++++",
"    @@@@$$$$$$$$%%%%$$$$$$$$$$$$$$$$$$$$########$$$$$$$$@@@@++++",
"    @@@@$$$$$$$$%%%%$$$$$$$$$$$$$$$$$$$$########$$$$$$$$@@@@++++",
"    @@@@$$$$$$$$%%%%$$$$$$$$$$$$########$$$$$$$$$$$$$$$$@@@@....",
"    @@@@$$$$$$$$%%%%$$$$$$$$$$$$########$$$$$$$$$$$$$$$$@@@@....",
"    @@@@$$$$$$$$%%%%$$$$$$$$$$$$########$$$$$$$$$$$$$$$$@@@@....",
"    @@@@$$$$$$$$%%%%$$$$$$$$$$$$########$$$$$$$$$$$$$$$$@@@@....",
"....@@@@$$$$$$$$%%%%$$$$########$$$$$$$$$$$$$$$$$$$$$$$$@@@@++++",
"....@@@@$$$$$$$$%%%%$$$$########$$$$$$$$$$$$$$$$$$$$$$$$@@@@++++",
"....@@@@$$$$$$$$%%%%$$$$########$$$$$$$$$$$$$$$$$$$$$$$$@@@@++++",
"....@@@@$$$$$$$$%%%%$$$$########$$$$$$$$$$$$$$$$$$$$$$$$@@@@++++",
"&&&&@@@@$$$$$$$$%%%%####$$$$$$$$$$$$$$$$$$$$%%%%$$$$$$$$@@@@&&&&",
"&&&&@@@@$$$$$$$$%%%%####$$$$$$$$$$$$$$$$$$$$%%%%$$$$$$$$@@@@&&&&",
"&&&&@@@@$$$$$$$$%%%%####$$$$$$$$$$$$$$$$$$$$%%%%$$$$$$$$@@@@&&&&",
"&&&&@@@@$$$$$$$$%%%%####$$$$$$$$$$$$$$$$$$$$%%%%$$$$$$$$@@@@&&&&",
"&&&&@@@@$$$$$$$$%%%%$$$$$$$$$$$$$$$$%%%%%%%%%%%%$$$$$$$$@@@@&&&&",
"&&&&@@@@$$$$$$$$%%%%$$$$$$$$$$$$$$$$%%%%%%%%%%%%$$$$$$$$@@@@&&&&",
"&&&&@@@@$$$$$$$$%%%%$$$$$$$$$$$$$$$$%%%%%%%%%%%%$$$$$$$$@@@@&&&&",
"&&&&@@@@$$$$$$$$%%%%$$$$$$$$$$$$$$$$%%%%%%%%%%%%$$$$$$$$@@@@&&&&",
"&&&&@@@@$$$$$$$$%%%%$$$$$$$$%%%%%%%%%%%%%%%%%%%%$$$$$$$$@@@@&&&&",
"&&&&@@@@$$$$$$$$%%%%$$$$$$$$%%%%%%%%%%%%%%%%%%%%$$$$$$$$@@@@&&&&",
"&&&&@@@@$$$$$$$$%%%%$$$$$$$$%%%%%%%%%%%%%%%%%%%%$$$$$$$$@@@@&&&&",
"&&&&@@@@$$$$$$$$%%%%$$$$$$$$%%%%%%%%%%%%%%%%%%%%$$$$$$$$@@@@&&&&",
"&&&&&&&&&&&&&&&&&&&&&&&&&&&&&&&&&&&&&&&&&&&&&&&&&&&&&&&&&&&&&&&&",
"&&&&&&&&&&&&&&&&&&&&&&&&&&&&&&&&&&&&&&&&&&&&&&&&&&&&&&&&&&&&&&&&",
"&&&&&&&&&&&&&&&&&&&&&&&&&&&&&&&&&&&&&&&&&&&&&&&&&&&&&&&&&&&&&&&&",
"&&&&&&&&&&&&&&&&&&&&&&&&&&&&&&&&&&&&&&&&&&&&&&&&&&&&&&&&&&&&&&&&",
"    &&&&&&&&&&&&&&&&&&&&&&&&&&&&&&&&&&&&&&&&&&&&&&&&&&&&&&&&++++",
"    &&&&&&&&&&&&&&&&&&&&&&&&&&&&&&&&&&&&&&&&&&&&&&&&&&&&&&&&++++",
"    &&&&&&&&&&&&&&&&&&&&&&&&&&&&&&&&&&&&&&&&&&&&&&&&&&&&&&&&++++",
"    &&&&&&&&&&&&&&&&&&&&&&&&&&&&&&&&&&&&&&&&&&&&&&&&&&&&&&&&++++",
"++++++++++++........++++....++++++++++++++++....++++++++++++++++",
"++++++++++++........++++....++++++++++++++++....++++++++++++++++",
"++++++++++++........++++....++++++++++++++++....++++++++++++++++",
"++++++++++++........++++....++++++++++++++++....++++++++++++++++"};
