/* XPM */
static char * wall_side_mid_right_xpm[] = {
"64 64 4 1",
" 	c #222222",
".	c #AA8D7A",
"+	c #1C1117",
"@	c #D3BFA9",
"    ............    ++++++++++++++++++++++++++++++++++++++++++++",
"    ............    ++++++++++++++++++++++++++++++++++++++++++++",
"    ............    ++++++++++++++++++++++++++++++++++++++++++++",
"    ............    ++++++++++++++++++++++++++++++++++++++++++++",
"    @@@@@@@@@@@@    ++++++++++++++++++++++++++++++++++++++++++++",
"    @@@@@@@@@@@@    ++++++++++++++++++++++++++++++++++++++++++++",
"    @@@@@@@@@@@@    ++++++++++++++++++++++++++++++++++++++++++++",
"    @@@@@@@@@@@@    ++++++++++++++++++++++++++++++++++++++++++++",
"                    ++++++++++++++++++++++++++++++++++++++++++++",
"                    ++++++++++++++++++++++++++++++++++++++++++++",
"                    ++++++++++++++++++++++++++++++++++++++++++++",
"                    ++++++++++++++++++++++++++++++++++++++++++++",
"    ............    ++++++++++++++++++++++++++++++++++++++++++++",
"    ............    ++++++++++++++++++++++++++++++++++++++++++++",
"    ............    ++++++++++++++++++++++++++++++++++++++++++++",
"    ............    ++++++++++++++++++++++++++++++++++++++++++++",
"    ............    ++++++++++++++++++++++++++++++++++++++++++++",
"    ............    ++++++++++++++++++++++++++++++++++++++++++++",
"    ............    ++++++++++++++++++++++++++++++++++++++++++++",
"    ............    ++++++++++++++++++++++++++++++++++++++++++++",
"    ............    ++++++++++++++++++++++++++++++++++++++++++++",
"    ............    ++++++++++++++++++++++++++++++++++++++++++++",
"    ............    ++++++++++++++++++++++++++++++++++++++++++++",
"    ............    ++++++++++++++++++++++++++++++++++++++++++++",
"    ............    ++++++++++++++++++++++++++++++++++++++++++++",
"    ............    ++++++++++++++++++++++++++++++++++++++++++++",
"    ............    ++++++++++++++++++++++++++++++++++++++++++++",
"    ............    ++++++++++++++++++++++++++++++++++++++++++++",
"    ............    ++++++++++++++++++++++++++++++++++++++++++++",
"    ............    ++++++++++++++++++++++++++++++++++++++++++++",
"    ............    ++++++++++++++++++++++++++++++++++++++++++++",
"    ............    ++++++++++++++++++++++++++++++++++++++++++++",
"    @@@@@@@@@@@@    ++++++++++++++++++++++++++++++++++++++++++++",
"    @@@@@@@@@@@@    ++++++++++++++++++++++++++++++++++++++++++++",
"    @@@@@@@@@@@@    ++++++++++++++++++++++++++++++++++++++++++++",
"    @@@@@@@@@@@@    ++++++++++++++++++++++++++++++++++++++++++++",
"                    ++++++++++++++++++++++++++++++++++++++++++++",
"                    ++++++++++++++++++++++++++++++++++++++++++++",
"                    ++++++++++++++++++++++++++++++++++++++++++++",
"                    ++++++++++++++++++++++++++++++++++++++++++++",
"    ............    ++++++++++++++++++++++++++++++++++++++++++++",
"    ............    ++++++++++++++++++++++++++++++++++++++++++++",
"    ............    ++++++++++++++++++++++++++++++++++++++++++++",
"    ............    ++++++++++++++++++++++++++++++++++++++++++++",
"    ............    ++++++++++++++++++++++++++++++++++++++++++++",
"    ............    ++++++++++++++++++++++++++++++++++++++++++++",
"    ............    ++++++++++++++++++++++++++++++++++++++++++++",
"    ............    ++++++++++++++++++++++++++++++++++++++++++++",
"    ............    ++++++++++++++++++++++++++++++++++++++++++++",
"    ............    ++++++++++++++++++++++++++++++++++++++++++++",
"    ............    ++++++++++++++++++++++++++++++++++++++++++++",
"    ............    ++++++++++++++++++++++++++++++++++++++++++++",
"    ............    ++++++++++++++++++++++++++++++++++++++++++++",
"    ............    ++++++++++++++++++++++++++++++++++++++++++++",
"    ............    ++++++++++++++++++++++++++++++++++++++++++++",
"    ............    ++++++++++++++++++++++++++++++++++++++++++++",
"    ............    ++++++++++++++++++++++++++++++++++++++++++++",
"    ............    ++++++++++++++++++++++++++++++++++++++++++++",
"    ............    ++++++++++++++++++++++++++++++++++++++++++++",
"    ............    ++++++++++++++++++++++++++++++++++++++++++++",
"    ............    ++++++++++++++++++++++++++++++++++++++++++++",
"    ............    ++++++++++++++++++++++++++++++++++++++++++++",
"    ............    ++++++++++++++++++++++++++++++++++++++++++++",
"    ............    ++++++++++++++++++++++++++++++++++++++++++++"};
