/* XPM */
static char * wall_side_mid_left_xpm[] = {
"64 64 4 1",
" 	c #1C1117",
".	c #222222",
"+	c #AA8D7A",
"@	c #D3BFA9",
"                                            ....++++++++++++....",
"                                            ....++++++++++++....",
"                                            ....++++++++++++....",
"                                            ....++++++++++++....",
"                                            ....@@@@@@@@@@@@....",
"                                            ....@@@@@@@@@@@@....",
"                                            ....@@@@@@@@@@@@....",
"                                            ....@@@@@@@@@@@@....",
"                                            ....................",
"                                            ....................",
"                                            ....................",
"                                            ....................",
"                                            ....++++++++++++....",
"                                            ....++++++++++++....",
"                                            ....++++++++++++....",
"                                            ....++++++++++++....",
"                                            ....++++++++++++....",
"                                            ....++++++++++++....",
"                                            ....++++++++++++....",
"                                            ....++++++++++++....",
"                                            ....++++++++++++....",
"                                            ....++++++++++++....",
"                                            ....++++++++++++....",
"                                            ....++++++++++++....",
"                                            ....++++++++++++....",
"                                            ....++++++++++++....",
"                                            ....++++++++++++....",
"                                            ....++++++++++++....",
"                                            ....++++++++++++....",
"                                            ....++++++++++++....",
"                                            ....++++++++++++....",
"                                            ....++++++++++++....",
"                                            ....@@@@@@@@@@@@....",
"                                            ....@@@@@@@@@@@@....",
"                                            ....@@@@@@@@@@@@....",
"                                            ....@@@@@@@@@@@@....",
"                                            ....................",
"                                            ....................",
"                                            ....................",
"                                            ....................",
"                                            ....++++++++++++....",
"                                            ....++++++++++++....",
"                                            ....++++++++++++....",
"                                            ....++++++++++++....",
"                                            ....++++++++++++....",
"                                            ....++++++++++++....",
"                                            ....++++++++++++....",
"                                            ....++++++++++++....",
"                                            ....++++++++++++....",
"                                            ....++++++++++++....",
"                                            ....++++++++++++....",
"                                            ....++++++++++++....",
"                                            ....++++++++++++....",
"                                            ....++++++++++++....",
"                                            ....++++++++++++....",
"                                            ....++++++++++++....",
"                                            ....++++++++++++....",
"                                            ....++++++++++++....",
"                                            ....++++++++++++....",
"                                            ....++++++++++++....",
"                                            ....++++++++++++....",
"                                            ....++++++++++++....",
"                                            ....++++++++++++....",
"                                            ....++++++++++++...."};
