/* XPM */
static char *result[] = {
/* columns rows colors chars-per-pixel */
"64 64 5 1 ",
"  c gray11",
". c #463837",
"X c #785C54",
"o c #AB8E7B",
"O c #D4C0AB",
/* pixels */
"                                                                ",
"                                                                ",
"                                                                ",
"                                                                ",
"oooooooooooo    oooooooooooo    oooooooooooo    oooooooooooo    ",
"oooooooooooo    oooooooooooo    oooooooooooo    oooooooooooo    ",
"oooooooooooo    oooooooooooo    oooooooooooo    oooooooooooo    ",
"oooooooooooo    oooooooooooo    oooooooooooo    oooooooooooo    ",
"oooooooooooo    oooooooooooo    oooooooooooo    oooooooooooo    ",
"OOOOOOOOOOOO    OOOOOOOOOOOO    OOOOOOOOOOOO    OOOOOOOOOOOO    ",
"OOOOOOOOOOOO    OOOOOOOOOOOO    OOOOOOOOOOOO    OOOOOOOOOOOO    ",
"OOOOOOOOOOOO    OOOOOOOOOOOO    OOOOOOOOOOOO    OOOOOOOOOOOO    ",
"                                                                ",
"                                                                ",
"                                                                ",
"                                                                ",
"XXXX    XXXXXXXX    XXXXXXXXXXXXXXXXXXXXXXXX    XXXXXXXXXXXXXXXX",
"XXXX    XXXXXXXX    XXXXXXXXXXXXXXXXXXXXXXXX    XXXXXXXXXXXXXXXX",
"XXXX    XXXXXXXX    XXXXXXXXXXXXXXXXXXXXXXXX    XXXXXXXXXXXXXXXX",
"XXXX    XXXXXXXX    XXXXXXXXXXXXXXXXXXXXXXXX    XXXXXXXXXXXXXXXX",
"................    ........................    ................",
"................    ........................    ................",
"................    ........................    ................",
"................    ........................    ................",
"................    ........................    ....    ........",
"................    ........................    ....    ........",
"................    ........................    ....    ........",
"................    ........................    ....    ........",
"                                                                ",
"                                                                ",
"                                                                ",
"                                                                ",
"XXXXXXXXXXXXXXXXXXXXXXXXXXXX    XXXXXXXXXXXXXXXXXXXXXXXX        ",
"XXXXXXXXXXXXXXXXXXXXXXXXXXXX    XXXXXXXXXXXXXXXXXXXXXXXX        ",
"XXXXXXXXXXXXXXXXXXXXXXXXXXXX    XXXXXXXXXXXXXXXXXXXXXXXX        ",
"XXXXXXXXXXXXXXXXXXXXXXXXXXXX    XXXXXXXXXXXXXXXXXXXXXXXX        ",
"............................    ........................    ....",
"............................    ........................    ....",
"............................    ........................    ....",
"............................    ........................    ....",
"............    ............    ........................    ....",
"............    ............    ........................    ....",
"............    ............    ........................    ....",
"............    ............    ........................    ....",
"                                                                ",
"                                                                ",
"                                                                ",
"                                                                ",
"XXXXXXXX    XXXXXXXXXXXXXXXXXXXXXXXXXXXX    XXXXXXXXXXXXXXXXXXXX",
"XXXXXXXX    XXXXXXXXXXXXXXXXXXXXXXXXXXXX    XXXXXXXXXXXXXXXXXXXX",
"XXXXXXXX    XXXXXXXXXXXXXXXXXXXXXXXXXXXX    XXXXXXXXXXXXXXXXXXXX",
"XXXXXXXX    XXXXXXXXXXXXXXXXXXXXXXXXXXXX    XXXXXXXXXXXXXXXXXXXX",
"........    ............................    ....................",
"........    ............................    ....................",
"........    ............................    ....................",
"........    ............................    ....................",
"........    ....................    ....    ....    ............",
"........    ....................    ....    ....    ............",
"........    ....................    ....    ....    ............",
"........    ....................    ....    ....    ............",
"                                                                ",
"                                                                ",
"                                                                ",
"                                                                "
};
