/* XPM */
static char * wall_left_bot_corner_xpm[] = {
"64 64 6 1",
" 	c #1C1117",
".	c #222222",
"+	c #AA8D7A",
"@	c #D3BFA9",
"#	c #775C55",
"$	c #483B3A",
"                                            ....++++++++++++....",
"                                            ....++++++++++++....",
"                                            ....++++++++++++....",
"                                            ....++++++++++++....",
"                                            ....@@@@@@@@@@@@....",
"                                            ....@@@@@@@@@@@@....",
"                                            ....@@@@@@@@@@@@....",
"                                            ....@@@@@@@@@@@@....",
"                                            ....................",
"                                            ....................",
"                                            ....................",
"                                            ....................",
"                                            ....................",
"                                            ....................",
"                                            ....................",
"                                            ....................",
"                                            ....################",
"                                            ....################",
"                                            ....################",
"                                            ....################",
"                                            ....$$$$$$$$$$$$$$$$",
"                                            ....$$$$$$$$$$$$$$$$",
"                                            ....$$$$$$$$$$$$$$$$",
"                                            ....$$$$$$$$$$$$$$$$",
"                                            ....$$$$$$$$$$$$$$$$",
"                                            ....$$$$$$$$$$$$$$$$",
"                                            ....$$$$$$$$$$$$$$$$",
"                                            ....$$$$$$$$$$$$$$$$",
"                                            ....................",
"                                            ....................",
"                                            ....................",
"                                            ....................",
"                                            ....########....####",
"                                            ....########....####",
"                                            ....########....####",
"                                            ....########....####",
"                                            ....$$$$$$$$....$$$$",
"                                            ....$$$$$$$$....$$$$",
"                                            ....$$$$$$$$....$$$$",
"                                            ....$$$$$$$$....$$$$",
"                                            ....$$$$$$$$....$$$$",
"                                            ....$$$$$$$$....$$$$",
"                                            ....$$$$$$$$....$$$$",
"                                            ....$$$$$$$$....$$$$",
"                                            ....................",
"                                            ....................",
"                                            ....................",
"                                            ....................",
"                                            ....################",
"                                            ....################",
"                                            ....################",
"                                            ....################",
"                                            ....$$$$$$$$$$$$$$$$",
"                                            ....$$$$$$$$$$$$$$$$",
"                                            ....$$$$$$$$$$$$$$$$",
"                                            ....$$$$$$$$$$$$$$$$",
"                                            ....$$$$$$$$....$$$$",
"                                            ....$$$$$$$$....$$$$",
"                                            ....$$$$$$$$....$$$$",
"                                            ....$$$$$$$$....$$$$",
"                                            ....................",
"                                            ....................",
"                                            ....................",
"                                            ...................."};
